<?xml version="1.0" encoding="utf-8"?>
<!-- Uploaded to: SVG Repo, www.svgrepo.com, Generator: SVG Repo Mixer Tools -->
<svg width="800px" height="800px" viewBox="0 -22.26 396.256 396.256" xmlns="http://www.w3.org/2000/svg"><defs><style>.a{fill:#d9d9d9;}.b{fill:#ffffff;}.c{fill:#b5886a;}.d{fill:#211715;}.e{fill:#6dbf6b;}.f{fill:#a095c1;}.g{fill:#c6c6c6;}</style></defs><path class="a" d="M166.284,253.877q-.006,7.63-.006,15.259a2.4,2.4,0,1,0,4.8,0q0-7.629.006-15.259a2.4,2.4,0,0,0-4.8,0Z"/><path class="a" d="M329.419,195.11c5.75,0,11.5-.046,17.251-.065.9,0,1.52-.166,1.646.951a16.522,16.522,0,0,1,0,1.808q0,3.24.005,6.481.016,22.3.034,44.6.007,9.753.011,19.506c0,3.088,4.8,3.093,4.8,0q0-20.865-.028-41.729-.007-10.889-.017-21.777,0-3.457,0-6.914c0-.639.021-1.282,0-1.921-.1-2.918-2-5.547-5.057-5.793-3.009-.242-6.126,0-9.142.013-3.166.013-6.332.034-9.5.035-3.089,0-3.094,4.8,0,4.8Z"/><path class="a" d="M168.678,268.4c0-13.1.05-66.206.05-72.4a3.179,3.179,0,0,1,2.982-3.354l157.239.068h.47c1.481,0,17.022-.068,18.315-.068A3.179,3.179,0,0,1,350.716,196c0,6.194.05,59.3.05,72.4"/><path class="b" d="M193.651,323.736c2.8-9.212,6.034-19.426,7.144-23.418,8.5,0,34.694-.272,47.293-.272,13.634,0,46.146.117,47.192.543,2.02.823,16.553,30.964,19.714,38.325,0,3.885-.253,6.306,0,10.1-8.459,0-123.632.312-125.845.312,0-2.163,0-7.711,0-9.376C189.6,337.359,191.493,330.846,193.651,323.736Z"/><path class="c" d="M123.065,318.541c-2.974-4.625-4.816-12.937-5.138-18.1V298.28c0-8.18,14.488-10.724,29.348-10.724,17.913,0,31.6,5.4,29.511,14.14a40.258,40.258,0,0,1-4.705,16.45c-2.648,4.551-10.145,10.621-12.374,10.768-2.328,1.622-.762,5.08-1.722,7.939-1.375,3.327-20.363,3.578-21.368-.426-.694-2.768.613-5.971-1.6-7.513-2.229-.147-8.677-5.438-11.831-10.188Z"/><path class="d" d="M191.477,340.5a132.361,132.361,0,0,1,3.852-14.024c1.851-6.153,3.772-12.284,5.658-18.427.725-2.359,1.458-4.718,2.122-7.1l-2.314,1.762c10.689,0,21.379-.137,32.068-.207q15.336-.1,30.672-.031c9.666.04,19.349,0,29.011.327.563.019,1.126.038,1.689.072.182.011.364.028.545.038.557.029-.233-.039-.225-.036.207.057-.9-.344-.8-.48.005-.006.3.314.317.335.265.291-.363-.534.054.084.16.238.322.474.477.716,2.033,3.162,3.736,6.557,5.456,9.895,4.225,8.2,8.294,16.5,12.078,24.919.265.59.528,1.181.784,1.776a2.415,2.415,0,0,0,3.283.861,2.463,2.463,0,0,0,.861-3.284c-3.468-8.056-7.408-15.94-11.366-23.765-1.938-3.831-3.885-7.675-6.066-11.376a18.906,18.906,0,0,0-2.217-3.28,3.744,3.744,0,0,0-2.746-1.174c-3.226-.274-6.5-.214-9.74-.259-5.345-.075-10.691-.113-16.037-.143q-15.5-.087-31-.025c-11.517.063-23.033.188-34.55.231q-1.274,0-2.547.006a2.449,2.449,0,0,0-2.315,1.762c-3.081,11.042-6.832,21.891-9.952,32.923-.618,2.186-1.269,4.387-1.68,6.624a2.466,2.466,0,0,0,1.676,2.952,2.422,2.422,0,0,0,2.953-1.676Z"/><path class="e" d="M215.986,322.049c6.03-1.794,12.979-6.293,15.417-7.968,3.027-2.08,10.705-6.033,10.753-10.139.086-7.242-7.7-6.711-11.437-3.3-1.018-8.769-17.331-7.843-16.472,1.512-4.624-1.937-9.52.328-11.926,4.2-2.952,4.758-2.394,11.691,4.052,13.15Z"/><path class="b" d="M302.775,338.914c-5.819,0-96.493.951-103.547.951"/><path class="d" d="M302.775,336.514c-3.958,0-7.917.059-11.875.095q-11.823.108-23.646.226l-28.127.275q-12.488.121-24.974.238c-4.76.043-9.52.1-14.28.115l-.645,0c-3.089,0-3.094,4.8,0,4.8,4.152,0,8.3-.058,12.457-.095q11.973-.108,23.945-.226l28.145-.275q12.354-.12,24.709-.238c4.578-.042,9.155-.1,13.732-.115l.559,0c3.089,0,3.094-4.8,0-4.8Z"/><path class="d" d="M120.327,298.28a6.414,6.414,0,0,1,.037-.707c-.014.113-.084.41.025-.041.041-.17.356-1.07.189-.7a3.993,3.993,0,0,1,1.094-1.565,11.851,11.851,0,0,1,3.848-2.362c4.466-1.806,9.441-2.388,14.211-2.709a91.159,91.159,0,0,1,16.765.276,38.7,38.7,0,0,1,12.739,3.386,13.187,13.187,0,0,1,4.115,2.985c.074.079.376.462.112.115.129.17.25.349.364.53q.14.222.264.453c.035.064.3.639.189.365-.136-.33.093.289.092.286.057.2.106.39.158.587a3.838,3.838,0,0,1,.074.4c-.089-.6-.009.271-.007.386.047,3.086,4.847,3.1,4.8,0-.143-9.4-12.322-12.682-19.7-13.854a88.542,88.542,0,0,0-18.91-.78c-5.483.311-11.237.891-16.4,2.89-4.477,1.735-8.772,4.807-8.863,10.059-.054,3.09,4.746,3.091,4.8,0Z"/><path class="d" d="M115.5,299.965a51.111,51.111,0,0,0,1.6,10.012,34.744,34.744,0,0,0,3.692,9.448,33.255,33.255,0,0,0,6.829,7.7c2.092,1.791,4.557,3.882,7.4,4.186l-1.7-.7c1.147.892.594,2.935.692,4.405a5.592,5.592,0,0,0,1.539,4.042c1.863,1.717,4.688,2.142,7.1,2.446a38.446,38.446,0,0,0,8.45.112c2.411-.229,5.16-.534,7.272-1.835a4.968,4.968,0,0,0,2.278-4.109c.127-1.085.063-2.164.084-3.253.017-.94-.032-1.264.671-1.808l-1.7.7c2.269-.243,4.205-1.673,5.968-3.025a38.617,38.617,0,0,0,6.658-6.37c4.606-5.744,6.375-13.554,6.9-20.753a2.4,2.4,0,0,0-4.8,0,38.113,38.113,0,0,1-3.771,14.581,26.906,26.906,0,0,1-7.639,8.574c-.544.425-1.109.826-1.687,1.2-.316.206-.637.4-.966.589-.13.072-.265.137-.394.211-.43.249-.056.052-.134.079s-.8.265-.325.136c.719-.2-1.031.311-1.016.3a4.964,4.964,0,0,0-.738.571,5.478,5.478,0,0,0-1.595,2.812,13.291,13.291,0,0,0-.228,3.033c0,.517.015,1.034-.01,1.551-.012.231-.038.461-.053.692-.038.579-.069.183,0,.226.011.008-.119.172-.1.166,0,0,.4-.526.169-.248-.179.216.5-.244.006-.007-.19.091-.378.2-.566.3-.28.145.444-.164.132-.056-.135.046-.268.1-.4.144a14.773,14.773,0,0,1-1.7.446c-.284.059-.569.111-.855.159-.149.025-.3.048-.448.071-.75.114.482-.051-.291.038a39.447,39.447,0,0,1-4.4.249,22.916,22.916,0,0,1-7.759-1c-.567-.18.06.066-.222-.085-.2-.107-.4-.233-.6-.333-.482-.239.311.308-.036-.037-.174-.172-.159-.324.109.171-.164-.3-.012-.017-.032,0,.083-.056.051.571-.027-.262-.013-.141-.03-.279-.044-.425-.043-.471-.028-.952-.025-1.424a14.926,14.926,0,0,0-.211-3.3,5.585,5.585,0,0,0-1.6-2.876,3.5,3.5,0,0,0-1.956-.9c.909.194-.518-.255.075-.009a15.786,15.786,0,0,1-3.946-2.657,25.982,25.982,0,0,1-7.987-10.541,45.059,45.059,0,0,1-2.863-13.342c-.16-3.073-4.961-3.092-4.8,0Z"/><path class="d" d="M174.6,300.145c-.016.586.164-.506.012.052-.031.11-.063.222-.092.332-.138.529.174-.306,0-.014-.079.129-.153.258-.237.383.3-.446-.187.18-.327.311s-.258.235-.394.342c.379-.3-.215.128-.242.144a17.9,17.9,0,0,1-4.915,1.968,69.6,69.6,0,0,1-14.834,1.964c-8.976.411-18.112-.267-26.63-3.334a20.385,20.385,0,0,1-4.931-2.46,5.158,5.158,0,0,1-.665-.574c-.094-.092-.181-.189-.275-.282s-.168-.188-.249-.286q.251.333.1.122c-.088-.14-.577-1.024-.268-.4a1.506,1.506,0,0,1-.094-.309q-.083-.394,0,.166a3.1,3.1,0,0,1-.017-.32c-.078-3.083-4.878-3.1-4.8,0,.1,3.838,3.645,6.245,6.8,7.7a53.364,53.364,0,0,0,14.078,3.957,81.564,81.564,0,0,0,15.667.878,78.164,78.164,0,0,0,17.394-2.187c4.029-1.08,9.59-3.19,9.722-8.147.082-3.09-4.718-3.088-4.8,0Z"/><path class="d" d="M207.011,317.2c-3.846-.942-4.651-4.271-3.547-7.673a7.729,7.729,0,0,1,10.145-5.053,2.411,2.411,0,0,0,3.038-2.314c-.022-.282-.036-.562-.031-.845,0-.083.06-.741.022-.475,0,.006.208-.827.333-1.129-.161.389.025-.02.114-.164.106-.173.209-.343.326-.51-.3.424.047-.051.133-.138.142-.143.285-.284.431-.424.1-.091.2-.178.309-.263-.191.147-.216.17-.077.071.172-.114.342-.228.52-.332.21-.123.425-.234.644-.341.458-.224-.328.1.2-.084a12.327,12.327,0,0,1,1.232-.363c.212-.049.424-.089.638-.125-.535.09.223-.022.334-.03a11,11,0,0,1,1.418-.015q.325.017.65.054c-.433-.05.058.013.217.047.419.089.829.2,1.238.328.147.048.6.237.209.065.222.1.438.208.65.326.18.1.35.214.525.322.5.305-.081-.115.242.182.165.152.851.93.581.56a5.549,5.549,0,0,1,.62,1.071c-.209-.486.256,1.2.19.7.272,2.053,2.424,3.178,4.1,1.7a7.206,7.206,0,0,1,4.75-1.706c.095,0,.768.1.338.023a5.749,5.749,0,0,1,.7.176c.463.148-.176-.12.287.128.078.042.6.416.28.155.7.575.821,1.043,1,2.2a2.419,2.419,0,0,0,2.953,1.677,2.46,2.46,0,0,0,1.676-2.953,7.25,7.25,0,0,0-6.737-6.166,11.748,11.748,0,0,0-8.638,3.076l4.1,1.7a9.054,9.054,0,0,0-4.095-6.715,11.966,11.966,0,0,0-7.245-1.725c-5.369.4-10.378,4.1-9.932,9.952l3.038-2.315c-6.757-2.665-13.913,1.841-16.05,8.406a11.747,11.747,0,0,0,.278,8.291,9.5,9.5,0,0,0,6.622,5.287c3,.735,4.28-3.893,1.276-4.629Z"/><path class="c" d="M239.4,330.427c-12.36,1-25.449-1.271-25.648-9.353-.246-9.935,15.825-12.335,22.3-12.344a55.2,55.2,0,0,1,16.216,2.206c7.391,2.155,14.009,8.8,6.851,14.29C256.078,327.557,248.4,329.7,239.4,330.427Z"/><path class="d" d="M239.4,328.027a54.659,54.659,0,0,1-12.545-.255c-3.056-.474-6.756-1.35-8.911-3.256a4.847,4.847,0,0,1-1.364-5.917c-.136.351.138-.276.191-.375a9.1,9.1,0,0,1,.482-.79c.273-.4.017-.07.345-.434.239-.266.487-.522.749-.766a13.225,13.225,0,0,1,3.167-2.072,36.616,36.616,0,0,1,11.766-2.911c1.241-.1,2.48-.131,3.724-.116a54.041,54.041,0,0,1,13.805,1.882c3.153.872,7.369,2.628,8.709,5.793.6,1.41.134,2.674-1.124,3.888a11.768,11.768,0,0,1-4.172,2.363,56.716,56.716,0,0,1-14.822,2.966,2.462,2.462,0,0,0-2.4,2.4,2.418,2.418,0,0,0,2.4,2.4,62.747,62.747,0,0,0,15.79-3.027c3.81-1.355,8.1-3.626,9.169-7.9,1.192-4.763-2.527-8.807-6.317-11.065-4.4-2.62-9.8-3.569-14.814-4.135-7.252-.817-15.015-.426-21.861,2.309-3.245,1.3-6.349,3.123-8.324,6.093a10.161,10.161,0,0,0-.617,10.127c2,3.85,6.574,5.724,10.565,6.664a53.74,53.74,0,0,0,16.409.929,2.46,2.46,0,0,0,2.4-2.4A2.42,2.42,0,0,0,239.4,328.027Z"/><path class="d" d="M266.226,311.6a26.4,26.4,0,0,1,3.714-.54q2.686-.26,5.391-.264a44.625,44.625,0,0,1,5.415.308,25.831,25.831,0,0,1,2.676.515q.635.158,1.258.353.3.1.6.2c.081.029.8.312.463.167a10.879,10.879,0,0,1,2.034,1.133c.064.046.35.287.041.029.166.139.328.284.482.436.1.1.2.2.3.308.3.313-.092-.217.21.263a7.6,7.6,0,0,1,.468.824c-.186-.4.161.548.219.758a3.432,3.432,0,0,1,.055,1.529c-.043.158-.092.313-.14.47-.109.352.275-.473-.026.052-.068.118-.6.908-.266.493a7.975,7.975,0,0,1-.693.731c-.1.095-.207.184-.312.271.4-.329-.3.2-.377.255a12.2,12.2,0,0,1-3.961,1.7,32.976,32.976,0,0,1-9.749,1.282c-3.088.008-3.094,4.808,0,4.8a41.737,41.737,0,0,0,10.545-1.321c3.494-.93,7.525-2.637,9.121-6.139,1.818-3.989-.06-8.482-3.49-10.884-3.535-2.477-8.273-3.079-12.473-3.28a51.792,51.792,0,0,0-12.78.922,2.4,2.4,0,1,0,1.276,4.628Z"/><path class="d" d="M245.646,316.3a12.113,12.113,0,0,0-2.824,5.03,2.49,2.49,0,0,0,.242,1.849,2.4,2.4,0,0,0,3.284.861,2.506,2.506,0,0,0,1.1-1.434,10.191,10.191,0,0,1,.431-1.246l-.242.573a9.527,9.527,0,0,1,1.179-2.021l-.375.485q.282-.364.6-.7a2.51,2.51,0,0,0,.7-1.7,2.443,2.443,0,0,0-.7-1.7,2.4,2.4,0,0,0-3.394,0Z"/><path class="d" d="M236.1,316.3a12.113,12.113,0,0,0-2.824,5.03,2.49,2.49,0,0,0,.242,1.849,2.4,2.4,0,0,0,3.284.861,2.506,2.506,0,0,0,1.1-1.434,10.191,10.191,0,0,1,.431-1.246l-.242.573a9.527,9.527,0,0,1,1.179-2.021l-.376.485c.189-.243.387-.478.6-.7a2.51,2.51,0,0,0,.7-1.7,2.443,2.443,0,0,0-.7-1.7,2.4,2.4,0,0,0-3.394,0Z"/><path class="d" d="M227.266,315.58a12.122,12.122,0,0,0-2.823,5.03,2.48,2.48,0,0,0,.242,1.849,2.4,2.4,0,0,0,3.283.861,2.5,2.5,0,0,0,1.1-1.434,10.133,10.133,0,0,1,.431-1.246l-.242.573a9.534,9.534,0,0,1,1.179-2.022l-.375.486q.282-.366.6-.7a2.51,2.51,0,0,0,.7-1.7,2.439,2.439,0,0,0-.7-1.7,2.4,2.4,0,0,0-3.394,0Z"/><path class="d" d="M186.749,340.118q0,4.607,0,9.211a2.435,2.435,0,0,0,2.4,2.4c4.187,0,8.374-.02,12.562-.031l28.57-.074,34.792-.09q15.615-.04,31.229-.078,8.94-.021,17.879-.038h.813a2.421,2.421,0,0,0,2.4-2.4c-.209-3.369-.009-6.731,0-10.1.008-3.089-4.792-3.093-4.8,0-.009,3.372-.209,6.734,0,10.1l2.4-2.4q-7.752,0-15.5.031l-30.086.075q-17.441.043-34.882.09l-29.893.078-10.074.026c-1.67,0-3.374-.088-5.042.012-.12.007-.243,0-.364,0l2.4,2.4q0-4.6,0-9.211c0-3.088-4.8-3.093-4.8,0Z"/><path class="d" d="M130.646,305.7c1.7-1.747,4.26-2.336,6.605-2.644,2.654-.349,5.349-.316,8.02-.412,4.806-.173,9.755-.169,14.388,1.187a13.049,13.049,0,0,1,3.407,1.452,6.281,6.281,0,0,1,2.2,2.138c1.6,2.636,5.755.226,4.145-2.423-3.124-5.142-9.726-6.466-15.266-6.984a65.45,65.45,0,0,0-8.057-.2c-2.886.085-5.793.085-8.663.419-3.68.428-7.494,1.322-10.172,4.07-2.157,2.214,1.234,5.611,3.394,3.394Z"/><path class="d" d="M132.635,306.41c-1.589-.356-3.133-.762-4.585-1.216,3.047-5.122,11.775-4.742,17-4.946,6.173-.24,18.857-.292,22.38,6.12a96.287,96.287,0,0,1-19.862,1.794A72.055,72.055,0,0,1,132.635,306.41Z"/><path class="b" d="M331.789,320.649c-2.974-4.626-4.815-12.937-5.138-18.105v-2.157c0-8.18,14.488-10.724,29.348-10.724,17.913,0,31.6,5.4,29.511,14.14a40.262,40.262,0,0,1-4.7,16.451c-2.647,4.55-10.145,10.62-12.374,10.767-2.328,1.622-.762,5.08-1.722,7.939-1.375,3.328-20.363,3.578-21.367-.426-.695-2.768.612-5.971-1.6-7.513-2.228-.147-8.677-5.438-11.83-10.188C331.869,320.772,331.829,320.711,331.789,320.649Z"/><path class="d" d="M329.051,300.387a6.427,6.427,0,0,1,.037-.707c-.014.113-.084.41.025-.04.041-.171.356-1.071.189-.7a4,4,0,0,1,1.094-1.566,11.842,11.842,0,0,1,3.848-2.361c4.466-1.807,9.441-2.389,14.211-2.71a91.172,91.172,0,0,1,16.766.276,38.689,38.689,0,0,1,12.738,3.386,13.187,13.187,0,0,1,4.115,2.985c.074.079.376.462.112.115.129.17.25.35.364.53q.139.222.265.454c.034.064.3.638.188.364-.136-.33.094.29.093.286.056.2.106.39.157.588a3.79,3.79,0,0,1,.074.4c-.089-.6-.009.27-.007.386.047,3.085,4.847,3.1,4.8,0-.143-9.4-12.322-12.683-19.7-13.855a88.607,88.607,0,0,0-18.91-.78c-5.483.311-11.237.891-16.4,2.89-4.477,1.735-8.771,4.807-8.863,10.059-.054,3.09,4.746,3.091,4.8,0Z"/><path class="d" d="M324.219,302.073a51.089,51.089,0,0,0,1.6,10.011,34.7,34.7,0,0,0,3.693,9.448,33.253,33.253,0,0,0,6.828,7.7c2.092,1.79,4.558,3.881,7.4,4.185l-1.7-.7c1.147.892.594,2.935.693,4.406a5.585,5.585,0,0,0,1.538,4.041c1.863,1.717,4.688,2.142,7.1,2.446a38.508,38.508,0,0,0,8.45.113c2.411-.23,5.16-.534,7.272-1.835a4.97,4.97,0,0,0,2.278-4.11c.127-1.085.064-2.164.084-3.252.018-.94-.031-1.264.671-1.809l-1.7.7c2.269-.243,4.206-1.672,5.968-3.025a38.617,38.617,0,0,0,6.658-6.37c4.607-5.744,6.375-13.554,6.895-20.752a2.421,2.421,0,0,0-2.4-2.4,2.446,2.446,0,0,0-2.4,2.4,38.113,38.113,0,0,1-3.771,14.58,26.917,26.917,0,0,1-7.638,8.575c-.545.424-1.11.825-1.688,1.2-.316.206-.637.405-.966.589-.13.072-.265.137-.394.211-.43.25-.055.053-.133.079s-.8.265-.325.136c.718-.2-1.031.311-1.017.3a4.892,4.892,0,0,0-.738.57,5.478,5.478,0,0,0-1.6,2.812,13.291,13.291,0,0,0-.228,3.033c0,.517.016,1.035-.01,1.551-.011.232-.038.461-.053.692-.037.579-.069.184,0,.227.012.007-.118.171-.1.165,0,0,.4-.525.17-.248-.18.216.5-.244.006-.007-.191.091-.379.2-.567.3-.279.144.444-.164.132-.057-.135.046-.268.1-.4.145a14.753,14.753,0,0,1-1.694.445c-.284.059-.57.111-.856.159-.149.025-.3.049-.448.071-.75.114.482-.05-.291.038a39.435,39.435,0,0,1-4.4.25,22.919,22.919,0,0,1-7.759-1c-.567-.18.06.066-.222-.085-.2-.107-.4-.232-.6-.333-.482-.239.312.308-.036-.036-.173-.173-.159-.325.109.17-.164-.3-.011-.017-.032,0,.083-.056.051.571-.027-.262-.013-.141-.03-.279-.043-.424-.044-.472-.029-.952-.026-1.425a14.926,14.926,0,0,0-.211-3.3,5.578,5.578,0,0,0-1.6-2.876,3.5,3.5,0,0,0-1.956-.9c.909.194-.518-.255.075-.009a15.786,15.786,0,0,1-3.946-2.657,25.991,25.991,0,0,1-7.987-10.541,45.06,45.06,0,0,1-2.863-13.341c-.16-3.074-4.961-3.093-4.8,0Z"/><path class="d" d="M383.32,302.252c-.015.586.164-.506.012.052-.03.11-.063.222-.092.332-.137.53.174-.306,0-.014-.078.129-.153.258-.237.384.3-.447-.186.179-.326.311s-.258.234-.395.341c.379-.3-.215.128-.242.144a17.9,17.9,0,0,1-4.915,1.968,69.6,69.6,0,0,1-14.834,1.964c-8.976.412-18.112-.266-26.629-3.334a20.409,20.409,0,0,1-4.932-2.46,5.158,5.158,0,0,1-.665-.574c-.094-.092-.181-.189-.274-.281s-.169-.189-.249-.286q.251.332.1.122c-.088-.14-.577-1.024-.268-.4a1.571,1.571,0,0,1-.094-.309c-.054-.263-.054-.207,0,.166a3.1,3.1,0,0,1-.016-.32c-.079-3.083-4.879-3.095-4.8,0,.1,3.838,3.644,6.245,6.794,7.7a53.326,53.326,0,0,0,14.078,3.957,81.483,81.483,0,0,0,15.667.878A78.164,78.164,0,0,0,378.4,310.4c4.029-1.08,9.59-3.19,9.722-8.147.083-3.09-4.718-3.088-4.8,0Z"/><path class="d" d="M340.148,305.4c-.328-1.186.655-2.016,1.693-2.467a6.835,6.835,0,0,1,5.3.331,2.437,2.437,0,0,0,2.952-1.677c.076-.218.106-.207,0-.011.068-.122.13-.247.207-.363.117-.177.15-.192,0-.019.092-.107.19-.21.292-.309s.21-.2.323-.288c-.331.265.072-.035.147-.077.27-.15.531-.31.814-.438.359-.162-.289.105.091-.031.155-.055.309-.108.466-.156.321-.1.646-.181.975-.249.167-.035.335-.067.5-.093.422-.067-.294.027.135-.016q.59-.058,1.181-.065a9.206,9.206,0,0,1,3.662.6,3.463,3.463,0,0,1,1.939,1.55,2.415,2.415,0,0,0,3.284.861,3.72,3.72,0,0,1,2.62-.843,5.409,5.409,0,0,1,2.557.867c1.308.814,2.639,2.3,2.255,3.958-.7,3.006,3.93,4.289,4.628,1.276,1.777-7.672-8.226-13.734-14.483-9.4l3.284.861c-1.84-3.461-6.372-4.632-10.01-4.522-3.9.118-8.123,1.666-9.5,5.634l2.952-1.676a10.885,10.885,0,0,0-9.469.41,6.734,6.734,0,0,0-3.429,7.631c.822,2.973,5.455,1.71,4.629-1.276Z"/><path class="b" d="M229.448,62.8C208,75.032,215.6,101.68,215.6,101.68a6.474,6.474,0,0,0-5.179-1.515,6.113,6.113,0,0,0-4.394,2.921,8.644,8.644,0,0,0-.9,3.476,25.9,25.9,0,0,0,2.64,13.725,16.449,16.449,0,0,0,4.255,5.585,10.9,10.9,0,0,0,5.074,2.287l1.654.253a44.028,44.028,0,0,0,8.392,16.382c4.539,5.433,9.714,9.345,15.4,11.332v18.951c4.492,2.452,10.187,3.8,17.577,3.8,19.792,0,26.28-12.121,27.563-14.083-2-.81-4.432-1.794-4.591-1.853-4.19-1.52-4.03-4.21-4.56-7.22-.04-.241-.081-.472-.11-.709,10.6-4.889,19.068-19.082,20.565-23.145.229-.7.7-2.006,1.112-3.561.555-.093.87-.142.87-.142a10.9,10.9,0,0,0,5.074-2.287,16.452,16.452,0,0,0,4.256-5.585,25.9,25.9,0,0,0,2.64-13.725,8.645,8.645,0,0,0-.905-3.476,6.111,6.111,0,0,0-4.394-2.921,6.475,6.475,0,0,0-5.179,1.515s9.384-44.892-45.135-44.892C244.805,56.788,235.838,59.154,229.448,62.8Z"/><path class="f" d="M178.074,268.216c.976-15.713,2.1-31.5,3.614-46.445.846-8.367,2.219-22.97,11.454-33.186,6.007-6.644,18.309-13.917,27.119-18.421l.226.168c8.655,5.662,24.941,11.286,40.158,11.324,14.151.035,33.408-5.662,40.093-11.324l.111-.068c8.807,4.5,20.986,11.721,26.953,18.321,9.235,10.216,10.608,24.819,11.453,33.186,1.5,14.827,2.621,30.489,3.593,46.088"/><path class="g" d="M272.651,32.905a25.29,25.29,0,0,1,7.91,5.228l8.155,3.919c3.514.706,7.63,3.6,10.263,6.288,10.806,11.032,15.774,33.36,11.065,52.713a6.393,6.393,0,0,0-2.411-.888,6.475,6.475,0,0,0-5.179,1.515l-2.646-7.743a42.2,42.2,0,0,0-12.583-27.112l-8.54-3.951c-2.867,3.612-11.037,10.42-22.839,12.69a76.392,76.392,0,0,1-12.237-.238c-1.616.792-3.3,1.466-4.876,2.107a51.329,51.329,0,0,1-10.59,2.747c-3.713,3.521-4.552,5.49-6.453,9.228-.956,1.881-1.418,3.461-2.036,4.979L215.6,101.68a6.474,6.474,0,0,0-5.179-1.515,6.251,6.251,0,0,0-2.279.816c-2.829-8.867-2.518-17.4-1.971-24.429,1.074-13.794,6.187-23.154,11.014-27.429a61.6,61.6,0,0,1,11.1-7.295l12.326-6.879a63.141,63.141,0,0,1,8.617-4.25C255.48,28.373,265.146,29.575,272.651,32.905Z"/><path class="d" d="M210.45,100.357c-2.71-8.646-2.763-18.054-1.562-26.982.931-6.92,3.176-14.306,7.405-19.793a29.2,29.2,0,0,1,7.638-6.447c4.085-2.557,8.376-4.8,12.582-7.149s8.413-5.052,12.921-6.813a21.441,21.441,0,0,1,9.147-1.24c7.059.357,15.258,2.781,20.286,7.905,2.168,2.208,5.561-1.187,3.395-3.394-5.148-5.245-12.863-7.954-20-8.943a32.583,32.583,0,0,0-11.226.179c-4.464.945-8.544,3.482-12.484,5.675-4.668,2.6-9.355,5.167-13.992,7.82-3.711,2.123-7.543,4.45-10.469,7.616-5.01,5.422-7.823,12.769-9.253,19.91A81.674,81.674,0,0,0,203.4,84.393a56.954,56.954,0,0,0,2.426,17.24c.921,2.938,5.556,1.684,4.629-1.276Z"/><path class="d" d="M288.078,44.366c3.99.876,7.5,3.719,10.17,6.7a37.93,37.93,0,0,1,5.894,9.249,60.077,60.077,0,0,1,5.266,24.118,63.317,63.317,0,0,1-1.449,14.993c-.667,3.01,3.959,4.3,4.629,1.276a70.262,70.262,0,0,0,.232-28.917c-1.682-8.417-4.987-16.77-10.552-23.391-3.265-3.883-7.865-7.553-12.914-8.661-3.011-.661-4.3,3.966-1.276,4.628Z"/><path class="d" d="M285.528,68.522a40.841,40.841,0,0,1,11.88,25.415,2.466,2.466,0,0,0,2.4,2.4,2.417,2.417,0,0,0,2.4-2.4,46.023,46.023,0,0,0-13.286-28.809c-2.192-2.182-5.587,1.211-3.394,3.394Z"/><path class="d" d="M276.988,61.177c-5.189,6.467-13.631,10.465-21.78,12.073a2.4,2.4,0,0,0,1.276,4.628A45.5,45.5,0,0,0,271.827,71.8a34.2,34.2,0,0,0,8.555-7.224,2.474,2.474,0,0,0,0-3.394,2.418,2.418,0,0,0-3.394,0Z"/><path class="d" d="M225.373,79.538a27.087,27.087,0,0,0-4.594,6.377c-.633,1.214-1.277,2.433-1.818,3.691-.586,1.365-1.067,2.766-1.621,4.143a2.407,2.407,0,0,0,1.676,2.952,2.472,2.472,0,0,0,2.952-1.676c.223-.555.43-1.115.637-1.675.109-.293.218-.585.33-.876.065-.168.132-.335.2-.5s.116-.272.017-.046c.534-1.221,1.158-2.407,1.774-3.588a27.094,27.094,0,0,1,1.645-2.8c.157-.23.321-.455.486-.679.15-.2.108-.126-.021.027.107-.128.21-.26.317-.389.45-.54.926-1.057,1.416-1.562a2.4,2.4,0,0,0-3.394-3.394Z"/><path class="d" d="M255.7,58.083c-2.579,5.821-6.635,11.679-12.38,14.706a55.6,55.6,0,0,1-19.478,5.595,2.474,2.474,0,0,0-2.4,2.4,2.415,2.415,0,0,0,2.4,2.4c7.645-.918,15.047-2.627,21.9-6.25,6.418-3.394,11.207-9.895,14.1-16.429a2.475,2.475,0,0,0-.861-3.283,2.417,2.417,0,0,0-3.283.861Z"/><path class="d" d="M276.1,155.644c.363,2.672.685,5.6,2.774,7.545a12.059,12.059,0,0,0,3.98,2.223q2.1.846,4.2,1.708a2.4,2.4,0,0,0,1.849-.242,2.4,2.4,0,0,0,.861-3.284,2.825,2.825,0,0,0-1.434-1.1q-2.018-.827-4.04-1.642c-.166-.067-.332-.135-.5-.2l-.071-.028c-.1-.037-.208-.076-.31-.117q.489.212.138.057a9.277,9.277,0,0,1-.937-.5c-.125-.079-.242-.182-.37-.254.6.339.2.155.024-.009-.111-.1-.216-.21-.317-.323-.327-.366.02.13.1.148-.143-.032-.373-.585-.437-.713-.1-.206-.2-.649.032.1-.03-.1-.073-.193-.105-.291a8.233,8.233,0,0,1-.224-.8c-.267-1.159-.429-2.369-.589-3.547a2.392,2.392,0,0,0-1.1-1.435,2.4,2.4,0,0,0-3.284.861,2.84,2.84,0,0,0-.242,1.85Z"/><path class="d" d="M304.152,103.377a3.943,3.943,0,0,1,5.8.921,8.461,8.461,0,0,1,.661,3.8,22.448,22.448,0,0,1-.33,4.624c-1.008,5.481-3.869,12.05-9.962,13.12a2.42,2.42,0,0,0-1.676,2.952,2.454,2.454,0,0,0,2.952,1.676c8.746-1.536,12.942-11.389,13.706-19.292.372-3.857.273-8.714-2.961-11.4a8.942,8.942,0,0,0-11.588.2,2.42,2.42,0,0,0,0,3.394,2.452,2.452,0,0,0,3.395,0Z"/><path class="d" d="M298.5,123.341a21.629,21.629,0,0,1-1.03,5.415c-.187.628-.392,1.25-.6,1.87-.073.218-.152.434-.221.652-.163.519.009,0,0,.031a43.7,43.7,0,0,1-2.817,5.183A51.265,51.265,0,0,1,282.4,149.727a21.6,21.6,0,0,1-8.413,4.267c-3.008.7-1.735,5.326,1.276,4.628,6.511-1.508,11.977-6.155,16.288-11.064a56.216,56.216,0,0,0,9.086-13.484,29.125,29.125,0,0,0,2.661-10.733c.11-3.089-4.69-3.085-4.8,0Z"/><path class="d" d="M217.293,99.983a8.942,8.942,0,0,0-11.588-.2c-3.234,2.685-3.333,7.543-2.96,11.4.764,7.9,4.959,17.756,13.7,19.292A2.469,2.469,0,0,0,219.4,128.8a2.419,2.419,0,0,0-1.676-2.952c-6.093-1.07-8.954-7.64-9.961-13.119a22.338,22.338,0,0,1-.337-4.4,8.815,8.815,0,0,1,.668-4.024,3.943,3.943,0,0,1,5.8-.921,2.465,2.465,0,0,0,3.394,0,2.42,2.42,0,0,0,0-3.394Z"/><path class="d" d="M215.034,122.84c2.375,13.667,9.788,27.035,22.42,33.675a30.96,30.96,0,0,0,11.274,3.391,2.416,2.416,0,0,0,2.4-2.4,2.454,2.454,0,0,0-2.4-2.4c-8.146-.856-14.969-6.034-20.04-12.182-5.014-6.079-7.691-13.683-9.025-21.361a2.421,2.421,0,0,0-2.952-1.676,2.456,2.456,0,0,0-1.677,2.953Z"/><path class="d" d="M291.9,168.667c.195.078.39.159.585.238.391.16-.029-.011-.091-.038.114.049.228.1.342.147.542.238,1.082.479,1.62.727,1.236.568,2.461,1.161,3.679,1.768q4.638,2.315,9.131,4.905c6.186,3.564,12.471,7.436,17.59,12.464,11.354,11.151,11.781,28.516,13.086,43.317,1.046,11.874,1.867,23.768,2.609,35.664.192,3.069,4.993,3.09,4.8,0-.682-10.934-1.431-21.866-2.36-32.783-.711-8.353-1.231-16.847-2.814-25.094-1.589-8.276-4.678-16.408-10.311-22.8-4.851-5.5-11.379-9.662-17.618-13.409a133.543,133.543,0,0,0-18.972-9.736,2.415,2.415,0,0,0-2.952,1.676,2.457,2.457,0,0,0,1.676,2.952Z"/><path class="d" d="M311.119,222.41c.014.093.132.963.065.425.039.31.073.62.1.931.069.687.122,1.376.165,2.065.093,1.5.14,3.011.163,4.518.057,3.788-.033,7.578-.178,11.363-.33,8.577-.96,17.143-1.741,25.689a2.418,2.418,0,0,0,2.4,2.4,2.45,2.45,0,0,0,2.4-2.4c.794-8.678,1.432-17.377,1.756-26.087.248-6.681.542-13.55-.506-20.181a2.417,2.417,0,0,0-2.952-1.676,2.458,2.458,0,0,0-1.676,2.953Z"/><path class="d" d="M205.2,221.133c-1.048,6.631-.754,13.5-.506,20.181.324,8.71.962,17.409,1.756,26.087a2.464,2.464,0,0,0,2.4,2.4,2.418,2.418,0,0,0,2.4-2.4c-.782-8.546-1.411-17.112-1.741-25.689-.145-3.785-.235-7.575-.178-11.363.023-1.507.069-3.014.163-4.518.043-.689.1-1.378.165-2.065.031-.311.065-.621.1-.931-.067.538.051-.332.065-.425a2.476,2.476,0,0,0-1.676-2.953,2.419,2.419,0,0,0-2.952,1.676Z"/><path class="b" d="M200.011,268.357c0-7.961,3.26-50.035,4.064-59.461,1.5-11.535,6.914-28.629,8.084-35.874,3.556-2.552,13.63-7,20.032-8.372,5.154,8.857,13.154,14.222,27.922,14.222,17.009,0,28.183-14.633,28.374-15.111,2.635.079,15.524,5.857,18.267,8.291,3.456,9.379,5.387,25.254,8.368,36.788,2.12,14.965,6.145,47.988,6.075,59.035"/><path class="d" d="M241.324,177.149a35.8,35.8,0,0,0,13.452,3.864,37.951,37.951,0,0,0,14.3-1,42.223,42.223,0,0,0,18.109-11.075,16.829,16.829,0,0,0,3.374-3.961l-2.072,1.189c.522.028-.556-.163.066.013.261.074.529.125.79.2.725.2,1.437.452,2.144.71,1.787.653,3.313,1.3,5.019,2.075,1.766.8,3.514,1.644,5.222,2.561.742.4,1.478.811,2.194,1.256.278.173.55.354.822.536.654.44-.1-.12.313.238l-.617-1.059c2.488,6.831,3.7,14.117,5.068,21.232,1.283,6.671,3.007,13.279,3.914,20.006,1.627,12.066,3.179,24.992,4.337,37.428.51,5.48,1.062,11.009,1.038,16.519-.014,3.09,4.786,3.093,4.8,0a194.315,194.315,0,0,0-1.365-19.917c-.852-8.6-1.856-17.2-2.937-25.776q-.717-5.68-1.492-11.353c-.6-4.351-1.79-8.612-2.645-12.922-1.006-5.074-1.92-10.167-3.019-15.222-.489-2.251-1.014-4.5-1.628-6.716-.492-1.775-.922-4.58-2.328-5.837a21.374,21.374,0,0,0-4.268-2.683c-1.811-.963-3.663-1.847-5.536-2.683s-3.79-1.65-5.731-2.353a14.7,14.7,0,0,0-4.161-1.052,2.339,2.339,0,0,0-2.073,1.189,1.882,1.882,0,0,1-.165.252c-.307.451.394-.47-.109.14-.542.656-1.1,1.294-1.686,1.912A42,42,0,0,1,278.61,170a35.838,35.838,0,0,1-9.032,4.817A35.416,35.416,0,0,1,243.747,173c-2.721-1.462-5.147,2.68-2.423,4.145Z"/><path class="d" d="M202.411,268.357c.012-7.156.7-14.348,1.187-21.481q.987-14.336,2.123-28.659c.3-3.813.461-7.673,1.082-11.45a2.473,2.473,0,0,0-1.676-2.952,2.419,2.419,0,0,0-2.952,1.676c-.594,3.61-.821,7.252-1.109,10.895q-.526,6.647-1.025,13.294c-.721,9.6-1.426,19.194-2,28.8-.194,3.285-.429,6.584-.435,9.877,0,3.088,4.8,3.093,4.8,0Z"/><path class="d" d="M227.771,164.039a129.426,129.426,0,0,0-16.413,8.231c-6.53,3.762-13.158,7.907-18.562,13.214-12.175,11.958-13.006,30.013-14.425,45.965-1.088,12.241-1.934,24.5-2.7,36.767-.192,3.085,4.608,3.073,4.8,0,.659-10.586,1.38-21.168,2.264-31.737.679-8.125,1.167-16.437,2.607-24.4,1.382-7.64,3.917-15.408,9.1-21.356,4.614-5.3,10.809-9.223,16.776-12.807q5.16-3.1,10.534-5.828c1.426-.725,2.862-1.432,4.312-2.109.623-.29,1.248-.576,1.877-.852.124-.054.961-.411.361-.16.247-.1.494-.205.742-.3a2.474,2.474,0,0,0,1.676-2.952,2.416,2.416,0,0,0-2.952-1.676Z"/><path class="d" d="M258.525,117.7c-.35,1.335-.664,2.683-.894,4.044a5.015,5.015,0,0,0-.02,2.174,3.1,3.1,0,0,0,1.663,2.022,4.554,4.554,0,0,0,2.163.528c.483-.021.944-.141,1.419-.2a2.39,2.39,0,0,0,1.434-1.1,2.4,2.4,0,0,0-.861-3.284l-.573-.242a2.423,2.423,0,0,0-1.276,0c-.2.027-.395.076-.595.1l.638-.086a2.229,2.229,0,0,1-.529,0l.638.086a2.466,2.466,0,0,1-.564-.165l.573.242a2.6,2.6,0,0,1-.334-.177l.485.375a.887.887,0,0,1-.138-.136l.376.486a.956.956,0,0,1-.093-.169l.242.574a1.5,1.5,0,0,1-.064-.262l.086.638a2.527,2.527,0,0,1,.016-.583l-.086.638a39.351,39.351,0,0,1,.923-4.224,2.5,2.5,0,0,0-.242-1.849,2.4,2.4,0,0,0-3.284-.861,2.481,2.481,0,0,0-1.1,1.434Z"/><path class="d" d="M240.688,113.027c.221-.1.444-.2.667-.293l-.573.242a19.624,19.624,0,0,1,4.453-1.258,2.408,2.408,0,0,0,1.434-1.1,2.4,2.4,0,0,0-.861-3.284l-.573-.242a2.423,2.423,0,0,0-1.276,0,22.322,22.322,0,0,0-5.694,1.793,2.408,2.408,0,0,0-1.1,1.434,2.458,2.458,0,0,0,.242,1.85,2.43,2.43,0,0,0,1.435,1.1l.638.085a2.384,2.384,0,0,0,1.211-.327Z"/><path class="d" d="M281.831,108.778a16.272,16.272,0,0,0-5.733-1.689,2.61,2.61,0,0,0-1.849.242,2.4,2.4,0,0,0-.861,3.284,2.334,2.334,0,0,0,1.434,1.1,18.874,18.874,0,0,1,4.3,1.013l-.573-.242a7.881,7.881,0,0,1,.861.434,2.492,2.492,0,0,0,1.85.242,2.4,2.4,0,0,0,.573-4.387Z"/><path class="d" d="M259.4,131.44a11.619,11.619,0,0,0-6.893,1.94,7.175,7.175,0,0,0-2.469,3.015,7.578,7.578,0,0,0-.468,2.237,7.861,7.861,0,0,0,2.2,6.4c2.829,2.722,7.513,3.27,11.2,2.542s6.776-3.391,7.162-7.23a7.629,7.629,0,0,0-2.632-6.2,11.96,11.96,0,0,0-8.1-2.7,2.4,2.4,0,1,0,0,4.8,7.287,7.287,0,0,1,4.639,1.232c-.363-.263.224.209.238.223.114.108.217.223.328.334.462.463-.14-.307.2.248.081.132.165.26.241.4.027.049.275.706.135.268.047.147.084.3.13.443.208.661.035-.368.032.083,0,.134.016.268.015.4,0,.11-.024.229-.015.338.024.307.145-.624.023-.164-.059.221-.125.45-.177.673-.11.462.219-.37.055-.11-.064.1-.107.22-.165.324s-.131.211-.192.318c-.289.506.282-.271-.039.064-.186.195-.374.381-.566.57-.289.284.027-.013.092-.058-.144.1-.287.2-.436.295-.265.164-.543.295-.82.437.423-.216.137-.053.025-.017-.267.086-.529.181-.8.253a9.987,9.987,0,0,1-1.11.232c.112-.017.413-.036-.088,0-.256.021-.513.044-.771.05a11.142,11.142,0,0,1-1.3-.064c-.162-.015-.324-.032-.485-.052.475.059-.282-.053-.373-.071a15.728,15.728,0,0,1-1.8-.487c-.562-.178.448.236-.056-.02-.1-.049-.194-.093-.289-.142-.267-.139-.507-.314-.766-.465-.421-.247.374.384.054.036-.057-.062-.133-.118-.194-.177-.017-.017-.431-.455-.423-.461.079-.058.355.551.095.1-.038-.066-.082-.13-.121-.2-.058-.1-.107-.2-.161-.3-.167-.3.092-.253.064.168a4.188,4.188,0,0,0-.278-1.024c-.115-.393.039.572.036.282,0-.083-.02-.167-.023-.251-.008-.2-.02-.39-.018-.587,0-.347.055-.688.071-1.033-.037.781-.046.256.068-.163-.119.437.1-.166.138-.244.236-.429-.18.094.194-.234.009-.008.572-.526.219-.24a4.84,4.84,0,0,1,.586-.389,3.48,3.48,0,0,1,1.092-.477c.173-.051.349-.1.525-.138s.355-.076.534-.107c.3-.051.358-.059.173-.025.487-.053.978-.07,1.468-.077a2.4,2.4,0,1,0,0-4.8Z"/><path class="b" d="M136.589,51.5a39.915,39.915,0,0,0-2.462-18.362A46.884,46.884,0,0,0,93.219,2.663C89.131,2.275,60.406-.072,43.2,21.26A53.417,53.417,0,0,0,32.043,49.487c-1.562,21.1,8.53,36.679,12.555,43.271,3.3,5.409,6.259,9.3,7.265,16.008.45,3-.878,10.78-2.727,13.116,3.5,5.007,17.974,9.39,21.817,10.252,7.525,1.688,15.69,1.708,22.538,1.3,2.469-6.067,4.943-11.437,5.42-12.269a2.45,2.45,0,0,1,3.068-1.055c4.743,1.985,12.435,2.266,18.257.975a14.134,14.134,0,0,0,8.654-6.084c3.16-4.434,5.484-13.192,6.223-17.131a11.277,11.277,0,0,1,3.181-4.421c2.232-1.843,5.589-3.062,4.469-6.928a6.87,6.87,0,0,0-2.694-3.539c-6.225-4.524-5.152-14.738-4.393-22.1a54.919,54.919,0,0,0,.905-11.965"/><path class="c" d="M107.34,5.817A49.947,49.947,0,0,0,93.219,2.663C89.131,2.275,60.406-.072,43.2,21.26A53.417,53.417,0,0,0,32.043,49.487c-1.562,21.1,8.53,36.679,12.555,43.271,2.6,4.256,4.984,7.574,6.372,12.062,9.347-4.931,17.112-14.068,22.448-20.511A21.656,21.656,0,0,1,70.1,71.356c.222-3.047,1.392-6.393,4.169-7.665a6.556,6.556,0,0,1,5.826.424,9.715,9.715,0,0,1,2.958,2.656c7.4-.806,23.052-9.653,27.689-12.338,7.682-4.447,18.457-13.291,24.057-19.274-.209-.658-.432-1.331-.67-2.026A48.336,48.336,0,0,0,111.221,7.554C109.9,6.884,108.6,6.31,107.34,5.817Z"/><path class="c" d="M45.345,77.729C40.9,65.285,34.011,64.4,32.845,64.526c-11.38-1.1-17.13,7.98-16.98,14.1.22,10.22,1.83,25.21-6.89,30.24,2.95,5.68,14.09,5.42,18,4.84,4.95-.71,8.82-3.31,12.69-6.29a30.019,30.019,0,0,0,8.01-9.77S49.789,90.173,45.345,77.729Z"/><path class="b" d="M102.816,269.415c-.024-5.408-.061-12.758-.073-15.614,0,0,0-17.346-.015-32.617,5.574-4.294,14.014-10.243,15.771-11.613,3.693-2.879,12.38-9.242,11.457-11.879-1.929-5.51-5.668-9.463-8.445-16-2.675-6.3-5.668-12.528-7.85-19.705-4.781-14.756-12.29-24.456-16.909-28.777-7.407.593-17.037.889-25.8-1.076-3.386-.76-15.028-4.254-20.137-8.5-16.333,5.622-31.15,21.566-40.083,44.242a92.031,92.031,0,0,0-3.89,14.6c-4.016,18.511-.849,38.467.1,46.89,1.389,12.319-1,26.662-4.536,39.994C22.31,269.4,59.139,269.416,102.816,269.415Z"/><path class="b" d="M171.179,219.387c-12.563,12.274-16.138,14.146-27.313,24.468-1.986,1.737-16.25,13.129-18.489,13.867-4.8,1.579-9.4-2.307-12.326-5.644-6.852-7.812-15.379-16.394-20.19-23.519a73.967,73.967,0,0,0,7.532-5.534c5.154-4.2,16.078-11.873,18.106-13.454,1.042-.812,2.483-1.9,3.993-3.108,1.852,3.02,4.047,7.113,6.253,10.477,1.481,2.259,4.037,1.555,6.259.037,7.287-4.979,22.292-17.809,26.118-20.846l11.334-17.439c1.4-3.487,6.881-9.042,12.572-9.786,2.715-.354,6.687-.288,7.428,3.86l.21,12.283c5.678-.981,8.46-4.132,13.819-6.238,2.517-.989,5.861.007,6.171,3.239.2,2.044-1.31,4.977-1.835,5.877a12.563,12.563,0,0,1,1.957,5.217,13.705,13.705,0,0,1-.949,5.636c.543,1.254,1.131,3.935-.474,8.151-1.516,3.984-7.5,5.166-10.714,5.616-4.262.6-19.3,1.664-21.588,1.705-2.2.038-5.749,3.521-7.874,5.135"/><path class="b" d="M160.534,241.747l6.867-9.22a33.1,33.1,0,0,1,8.673-4.544,7.178,7.178,0,0,1,2.957-.385c1.778.142,4.425.446,7.164.42a37.74,37.74,0,0,0,9.2-.871,2.98,2.98,0,0,1,3.849,2.774c-.045,1.333-1.056,2.435-3.327,3.829a18.756,18.756,0,0,1-8.068,3.294l1.584,4.2c2.467-1.06,4.815-2.308,7.324-3.234,2.275-.841,9.032-2.378,9.036,2l.046.984a27.369,27.369,0,0,1,7.059-2.257,3.855,3.855,0,0,1,4.035,3.91l-.051,1.543,1.405-.509a4.66,4.66,0,0,1,5,1.056,2.945,2.945,0,0,1-.555,4.167,44.378,44.378,0,0,1-7.824,4.59,51.892,51.892,0,0,1-8.681,3.653c-2.517.762-5.415.757-8.029,1.131a132.664,132.664,0,0,1-14.83,1.039c-4.281.131-10.53-.761-15.3-3.783a21.255,21.255,0,0,0-4.812-2.134,77.587,77.587,0,0,0-11.248-.2Z"/><path class="d" d="M4.719,269.994C7.7,258.73,9.972,247.007,9.73,235.308c-.083-4.014-.639-7.972-1.107-11.952C8.1,218.883,7.667,214.4,7.441,209.9a114.453,114.453,0,0,1,2.07-28.658,86.554,86.554,0,0,1,11.56-28.7c5.367-8.614,12.277-16.457,20.885-21.938,2.6-1.654.193-5.81-2.423-4.145a71.829,71.829,0,0,0-19.985,19.692A90.334,90.334,0,0,0,5.821,175.81a112.556,112.556,0,0,0-3.357,28.216c.077,8.8,1.308,17.43,2.169,26.163C5.907,243.127,3.385,256.255.09,268.718c-.79,2.989,3.839,4.264,4.629,1.276Z"/><path class="d" d="M46.532,122.126c1.021,2.411,3.552,4.124,5.72,5.409a56.05,56.05,0,0,0,9.133,4.155,67.8,67.8,0,0,0,19.8,4.214,113.306,113.306,0,0,0,15.568-.294l-1.7-.7c6.592,6.2,11.336,14.6,14.622,23.032,1.2,3.082,2.106,6.26,3.241,9.364s2.414,6.129,3.723,9.15c1.284,2.964,2.477,6,3.928,8.885,1.283,2.552,2.829,4.951,4.289,7.4.663,1.113,1.3,2.241,1.87,3.407.234.484.456.971.652,1.472.107.272.182.568.3.834l-.053-.374q-.016.382.039-.206c-.019.137-.232.612.017.062a2.743,2.743,0,0,1-.176.341c-.114.177-.22.36-.337.536-.4.6.158-.182-.12.173a21.145,21.145,0,0,1-2.216,2.333c-1.617,1.519-3.348,2.915-5.094,4.282-.838.656-1.492,1.156-2.393,1.853l-.368.285c-.588.457.463-.332.05-.04-.245.174-.482.361-.724.54-3.331,2.456-6.707,4.851-10.039,7.308-3.787,2.792-7.394,5.821-11.182,8.606a26.483,26.483,0,0,1-7.256,4.239,3.637,3.637,0,0,1-2.713.034,29.693,29.693,0,0,1-4.25-1.528c-6.471-2.889-11.769-7.7-17.5-11.766a2.419,2.419,0,0,0-3.283.861,2.45,2.45,0,0,0,.861,3.283c3.87,2.742,7.551,5.744,11.461,8.429a39.607,39.607,0,0,0,10.714,5.139,9.679,9.679,0,0,0,5.3.37,18.554,18.554,0,0,0,4.871-2.109,71.881,71.881,0,0,0,9-6.54c4.8-3.877,9.976-7.479,15.013-11.139,2.039-1.482,3.468-2.588,5.363-4.063a55.91,55.91,0,0,0,7.1-6.195,11.6,11.6,0,0,0,2.257-3.261,5.086,5.086,0,0,0-.291-4.258c-1.516-3.661-3.772-6.9-5.723-10.329a120.49,120.49,0,0,1-5.571-12.1c-1.832-4.256-3.338-8.58-4.823-12.964a79.83,79.83,0,0,0-10.667-21.14,56.776,56.776,0,0,0-5.334-6.459c-.355-.365-.709-.739-1.091-1.075-1.071-.942-2.191-.73-3.5-.639-2.146.149-4.3.253-6.446.294a67.026,67.026,0,0,1-21.283-2.6,76.245,76.245,0,0,1-8.012-2.921c-1.36-.6-2.7-1.242-4-1.971a19.089,19.089,0,0,1-3.039-2.031,10.019,10.019,0,0,1-1.065-1.076c.335.4-.122-.19-.186-.3a5.336,5.336,0,0,1-.316-.633,2.413,2.413,0,0,0-3.283-.861,2.464,2.464,0,0,0-.861,3.284Z"/><path class="d" d="M69.888,84.811c-5.418,6.418-11.272,12.741-18.558,17.06-2.655,1.574-.243,5.725,2.423,4.145,7.641-4.53,13.845-11.077,19.529-17.81a2.465,2.465,0,0,0,0-3.395,2.421,2.421,0,0,0-3.394,0Z"/><path class="d" d="M86.236,67.29c-1.824-3.244-4.7-5.928-8.508-6.41a8.342,8.342,0,0,0-8.575,4.767c-2.941,6.055-1.4,13.838,1.917,19.421a24.206,24.206,0,0,0,8.106,8.243c2.637,1.626,5.051-2.524,2.423-4.144a19.518,19.518,0,0,1-9.143-15.759c-.073-2.406.168-5.876,2.431-7.329,2.914-1.872,5.908,1.329,7.2,3.634,1.514,2.693,5.662.276,4.145-2.423Z"/><path class="d" d="M132.881,100.384a18.387,18.387,0,0,1-2.333-.162l.638.086a15.349,15.349,0,0,1-2.332-.5c-.323-.1-.638-.216-.955-.334s.274.1.285.122c-.027-.044-.184-.081-.229-.1-.131-.06-.26-.122-.387-.187a10.121,10.121,0,0,1-1.2-.742c.663.467.246.2,0-.024a4.334,4.334,0,0,1-.329-.335,2.414,2.414,0,0,0-3.394,0,2.459,2.459,0,0,0,0,3.4,9.008,9.008,0,0,0,3.213,2.18,17.955,17.955,0,0,0,7.025,1.405,2.4,2.4,0,0,0,0-4.8Z"/><path class="d" d="M127.558,70.985c.489,2.3-.323,7.435-4.4,7.562-5.338-.448-5.157-6.721-3.141-9.52C121.671,66.735,126.074,66.07,127.558,70.985Z"/><path class="d" d="M134.181,48.922c.31,8.518-2.34,16.86-1.164,25.388.5,3.607,1.818,7.3,4.616,9.775,1.237,1.094,3.154,2.174,2.944,4.117a1.931,1.931,0,0,1-.588.947,10.1,10.1,0,0,1-1.528,1.209,15.467,15.467,0,0,0-4.538,4.566,16.232,16.232,0,0,0-1.705,4.975,54.135,54.135,0,0,1-3.565,10.694c-1.6,3.34-4.03,6.58-7.673,7.8a29.969,29.969,0,0,1-12.479.866,38.478,38.478,0,0,1-6.2-1.569,4.953,4.953,0,0,0-5.637,2.59,133.942,133.942,0,0,0-5.5,12.524,2.415,2.415,0,0,0,1.676,2.953A2.46,2.46,0,0,0,95.8,134.08c1.53-3.734,3.076-7.5,4.882-11.108.062-.124.21-.588.355-.646.273-.109,1.539.561,1.883.667a30.738,30.738,0,0,0,6.378,1.144c4.243.369,9.059.249,13.117-1.167a18,18,0,0,0,9.539-8.318,49.244,49.244,0,0,0,4.342-11.314c.414-1.517.64-3.112,1.093-4.612a8.476,8.476,0,0,1,3.144-3.973,13.6,13.6,0,0,0,3.917-3.527,6.667,6.667,0,0,0,.371-6.048,8.961,8.961,0,0,0-1.9-2.9c-.683-.709-1.53-1.222-2.234-1.906a9.187,9.187,0,0,1-2.281-3.824c-1.248-3.876-1.008-8.112-.673-12.114.436-5.2,1.441-10.264,1.25-15.513-.112-3.079-4.913-3.094-4.8,0Z"/><path class="d" d="M138.989,51.5a45.088,45.088,0,0,0-3.925-22.353,50.922,50.922,0,0,0-11.919-16.231A48.744,48.744,0,0,0,96.877.683,70.942,70.942,0,0,0,84.509.05C69.256.64,53.823,5.919,43.341,17.417a54.246,54.246,0,0,0-13.133,27.53,61.888,61.888,0,0,0,2.883,30.008,94.681,94.681,0,0,0,9.078,18.432c2.279,3.717,4.926,7.37,6.316,11.541a16.786,16.786,0,0,1,1.053,5.933,28.011,28.011,0,0,1-.782,5.425,11.442,11.442,0,0,1-1.632,4.306,2.42,2.42,0,0,0,.861,3.283,2.452,2.452,0,0,0,3.284-.861c2.1-2.953,2.666-7.346,2.983-10.856a23.922,23.922,0,0,0-2.836-12.593c-1.7-3.441-3.9-6.622-5.894-9.895-1.583-2.6-3.09-5.245-4.437-7.976a63.739,63.739,0,0,1-6.707-24.4,51.41,51.41,0,0,1,7.049-29.258A45.052,45.052,0,0,1,59.85,10.881,52.787,52.787,0,0,1,70.131,6.993a64.856,64.856,0,0,1,9.418-1.78c12-1.3,24.262.131,34.592,6.778a46,46,0,0,1,14.994,16.1c.614,1.085,1.188,2.193,1.713,3.323.177.381.345.766.512,1.151-.3-.693.158.4.255.661a40.771,40.771,0,0,1,2.62,10.716,47.2,47.2,0,0,1-.046,7.557,2.421,2.421,0,0,0,2.4,2.4,2.446,2.446,0,0,0,2.4-2.4Z"/><path class="d" d="M32.845,62.126c-8.3-.723-16.2,3.99-18.723,12.078-1.074,3.441-.561,7.14-.461,10.679a61.12,61.12,0,0,1-.5,12.238c-.686,3.9-2.047,7.682-5.4,9.672a2.448,2.448,0,0,0-.861,3.284c2.931,5.371,10.261,6.336,15.765,6.318a26.011,26.011,0,0,0,8.568-1.272A36.5,36.5,0,0,0,41.764,108.8a31.3,31.3,0,0,0,7.983-9.942c1.412-2.742-2.728-5.173-4.145-2.423a30.24,30.24,0,0,1-14.348,13.537,18.92,18.92,0,0,1-4.917,1.42c-.406.067.457-.037-.131.013-.2.017-.39.041-.586.059-.521.046-1.044.079-1.566.1a28.557,28.557,0,0,1-7.087-.482,13.371,13.371,0,0,1-3.628-1.241,5.186,5.186,0,0,1-2.292-2.186l-.861,3.284c7.231-4.3,8.244-13.595,8.33-21.216.044-3.9-.4-7.835-.246-11.732.011-.292.033-.585.071-.874-.061.467.011-.033.036-.147.042-.189.076-.38.121-.569a12.471,12.471,0,0,1,.67-2.076,14.97,14.97,0,0,1,2.368-3.56c2.927-3.1,7.011-4.212,11.309-3.838a2.419,2.419,0,0,0,2.4-2.4,2.45,2.45,0,0,0-2.4-2.4Z"/><path class="d" d="M131.991,34.616a117.179,117.179,0,0,1-20.137,16.327,151.191,151.191,0,0,1-17.672,9.5,47.345,47.345,0,0,1-10.72,3.861,2.423,2.423,0,0,0-1.676,2.952,2.45,2.45,0,0,0,2.952,1.676,47.969,47.969,0,0,0,10.147-3.565c3.591-1.59,7.1-3.37,10.555-5.228a125.672,125.672,0,0,0,18.666-12.16,124.137,124.137,0,0,0,11.28-9.97c2.174-2.2-1.218-5.595-3.395-3.394Z"/><path class="d" d="M98.538,165.974c-7.7,4.426-15.488,9.836-21.151,16.762-3.657,4.473-7.019,9.226-10.448,13.874-1.672,2.267-3.37,4.526-4.935,6.87-1.72,2.576,2.436,4.982,4.145,2.422,3.037-4.549,6.415-8.89,9.695-13.265,1.484-1.978,2.962-3.962,4.471-5.921a54.718,54.718,0,0,1,7.96-7.922,91.485,91.485,0,0,1,12.686-8.675c2.677-1.539.263-5.689-2.423-4.145Z"/><path class="d" d="M121.45,209.4c1.271,2.171,2.5,4.364,3.812,6.513,1.155,1.9,2.3,4.1,4.632,4.695,3.66.93,6.915-1.907,9.633-3.947,5.789-4.345,11.364-8.975,16.936-13.593,2.113-1.752,4.208-3.528,6.356-5.237a2.414,2.414,0,0,0,0-3.394,2.458,2.458,0,0,0-3.394,0c-4.106,3.267-8.089,6.692-12.151,10.013-2.575,2.107-5.163,4.2-7.788,6.244-2.143,1.671-4.375,3.686-6.826,4.893a3.445,3.445,0,0,1-1.482.422c-.741-.287-1.263-1.686-1.654-2.327-1.352-2.21-2.62-4.469-3.929-6.7-1.56-2.665-5.71-.252-4.145,2.422Z"/><path class="d" d="M92.339,231.951c5.614,7.5,12.247,14.163,18.442,21.174,2.695,3.048,5.931,6.211,10.059,7.093a9.66,9.66,0,0,0,7.707-1.553c4.632-3.082,8.99-6.625,13.33-10.1,4.4-3.518,8.472-7.4,12.754-11.058,6.233-5.324,12.374-10.7,18.245-16.424,2.214-2.161-1.181-5.554-3.394-3.4-5.137,5.012-10.45,9.805-15.921,14.448-4.372,3.711-8.525,7.7-12.963,11.328-3.978,3.247-7.812,6.268-11.925,9.263-.887.646-1.78,1.286-2.7,1.89-.3.2-.607.4-.92.58-.138.082-.282.156-.42.238-.4.238-.11-.061.167-.052a5.644,5.644,0,0,0-.875.244,5.338,5.338,0,0,1-1.172.047,6.592,6.592,0,0,1-2.355-.65,16.131,16.131,0,0,1-4.544-3.446c-3.449-3.531-6.657-7.347-9.974-11-3.246-3.577-6.5-7.177-9.4-11.048a2.476,2.476,0,0,0-3.284-.861,2.418,2.418,0,0,0-.861,3.284Z"/><path class="d" d="M174.77,179.33c-.22.526.034-.038.092-.15.1-.193.207-.383.318-.571a13.748,13.748,0,0,1,.795-1.194c.18-.242.44-.551.8-.948s.708-.757,1.082-1.116a16.137,16.137,0,0,1,5.279-3.494,12.126,12.126,0,0,1,1.682-.49,4.562,4.562,0,0,0,.483-.095,3.548,3.548,0,0,0,.4-.04,11.148,11.148,0,0,1,2.367,0c-.55-.068.064.028.184.056.2.048.4.113.595.171.526.151-.277-.218.176.084.052.035.6.4.195.079a4.137,4.137,0,0,1,.453.435c-.277-.3.065.117.135.233.2.337.015-.036.1.2a6.123,6.123,0,0,1,.237.913,2.4,2.4,0,1,0,4.628-1.276c-1.154-5.754-7.6-6.6-12.357-5.09a20.5,20.5,0,0,0-12.271,11.016,2.413,2.413,0,0,0,1.676,2.952,2.462,2.462,0,0,0,2.952-1.676Z"/><path class="b" d="M216.456,165.655c-5.395,1.89-40.31,14.039-49.219,17.229-1.314.47-2.787,2.77-2.288,4.073.34.886.722,2.176,1.06,3.077.483,1.284,2.877,2.176,4.161,1.7,19.7-7.375,32.411-11.27,48.121-17.28,3.943,2.391,12.159,1.76,17.486.131,5.68-1.736,8.086-3.592,11.642-7.444,2.595-2.811,3.2-6.153,2.222-8.74-.827-2.178-4.268-3.968-7.181-4.12-8.338-.436-14.226.231-19.56,4.564A27.221,27.221,0,0,0,216.456,165.655Z"/><path class="d" d="M215.818,163.341q-18.174,6.366-36.36,12.7-4.471,1.567-8.939,3.141-1.641.579-3.28,1.163a6.888,6.888,0,0,0-4.428,4.2,4.872,4.872,0,0,0-.062,3.358,20.153,20.153,0,0,0,1.293,3.564,6.261,6.261,0,0,0,6.529,2.646,39.545,39.545,0,0,0,3.879-1.424q2.379-.879,4.764-1.742,3.828-1.386,7.668-2.74c10.7-3.776,21.449-7.4,32.047-11.444l-1.849-.242c4.921,2.853,11.734,2.148,17.044.971a27.3,27.3,0,0,0,14.246-7.864c2.3-2.4,4.076-5.236,4.114-8.668a8.11,8.11,0,0,0-3.974-7.181c-2.864-1.818-6.132-1.984-9.421-2.015a36.544,36.544,0,0,0-9,.876c-6.661,1.628-11.8,6.368-15.7,11.8a2.419,2.419,0,0,0,.861,3.283,2.453,2.453,0,0,0,3.284-.861c3.9-5.432,9.171-9.48,15.978-10.131a46.12,46.12,0,0,1,5.4-.157,12.519,12.519,0,0,1,5.226.816,3.837,3.837,0,0,1,2.471,2.564,5.919,5.919,0,0,1-.874,4.123,18.793,18.793,0,0,1-6.717,6.211,28.08,28.08,0,0,1-9.481,3,22.381,22.381,0,0,1-9.5-.266,8.243,8.243,0,0,1-1.524-.654c-1.264-.618-2.307-.065-3.508.389q-2.607.987-5.224,1.943c-6.842,2.5-13.733,4.869-20.611,7.272q-5.7,1.992-11.383,4.035-3.029,1.1-6.048,2.21c-1.053.389-2.115.893-3.2,1.189a1.451,1.451,0,0,1-1.086-.209c-.08-.041-.354-.3-.26-.161-.029-.043-.2-.625-.272-.831-.139-.417-.274-.837-.419-1.253-.06-.173-.3-.932-.284-.414-.015-.549.475-1,.8-1.367.227-.262.088-.063.051-.048.172-.07.351-.125.525-.187q2.557-.912,5.12-1.811,7.344-2.586,14.694-5.15,13.635-4.766,27.276-9.518l1.42-.5a2.459,2.459,0,0,0,1.676-2.952A2.421,2.421,0,0,0,215.818,163.341Z"/><path class="d" d="M193.3,187.363a24.007,24.007,0,0,0,7.282-2.759,49.1,49.1,0,0,1,6.537-3.479,3.044,3.044,0,0,1,1.976-.194,1.392,1.392,0,0,1,1.044.795c.622,1.5-.655,3.7-1.394,4.989a2.5,2.5,0,0,0,.375,2.909c-.273-.345.351.707.434.892a12.139,12.139,0,0,1,.614,1.811,7.081,7.081,0,0,1,.075,3.266,15.423,15.423,0,0,1-.4,1.63c0,.014-.295.884-.093.345a2.979,2.979,0,0,0-.328,1.212,3.994,3.994,0,0,0,.315,1.263c.059.193.106.388.151.585.018.076.1.684.059.3.217,2.036-.274,4.89-1.523,6.217a10.277,10.277,0,0,1-5.043,2.447c-.968.244-1.946.417-2.931.578-.151.024-.3.043-.454.066.749-.115.168-.022.016,0-.381.044-.761.089-1.142.13-1.8.194-3.607.352-5.413.5-3.978.334-7.961.632-11.947.869a13.673,13.673,0,0,0-4.876.73c-2.513,1.106-4.667,3.307-6.674,4.854a2.482,2.482,0,0,0-.861,3.284,2.417,2.417,0,0,0,3.284.861c1.733-1.336,3.337-2.876,5.185-4.056a7.069,7.069,0,0,1,1.228-.686c.03-.011.582-.086.33-.068.421-.029.846-.033,1.268-.055,3.258-.172,6.513-.416,9.766-.668,3.341-.258,6.693-.5,10.018-.919,3.774-.475,7.732-1.275,10.776-3.7a10.837,10.837,0,0,0,3.6-6.976,11.42,11.42,0,0,0-.417-6.187l-.242,1.849c1.944-4.451,1.709-9.864-1.382-13.761l.375,2.908c1.36-2.377,2.562-5.283,2.032-8.063a6.439,6.439,0,0,0-6.171-5.02c-3.017-.177-6,1.756-8.51,3.207a25.515,25.515,0,0,1-8.217,3.472,2.421,2.421,0,0,0-1.676,2.953,2.452,2.452,0,0,0,2.952,1.676Z"/><path class="d" d="M100.345,253.806c.018,5.2.05,10.406.06,15.61a2.4,2.4,0,1,0,4.8,0c-.01-5.2-.042-10.407-.06-15.61a2.4,2.4,0,1,0-4.8,0Z"/><path class="b" d="M240.493,152.9c4.4,4.037,1.783,11.268-6.168,11.954-9,3.694-11.662-1.7-10.786-7.42C224.6,152.077,235.85,147.806,240.493,152.9Z"/><path class="d" d="M238.8,154.6c.156.147.308.3.452.454.062.067.4.492.208.234s.164.262.2.325a5,5,0,0,0,.28.516c.148.187-.062-.162-.074-.2.036.1.081.2.114.306.049.154.1.307.139.464.024.094.151.714.079.309-.067-.373.012.2.016.315.006.186,0,.37-.007.556,0,.078-.022.16-.018.238,0-.009.1-.5.034-.243-.1.362-.166.73-.281,1.09-.177.551.167-.247-.044.107-.085.143-.152.3-.236.441-.1.169-.23.327-.321.5-.118.223.1-.123.118-.141-.075.089-.147.18-.224.267a9.487,9.487,0,0,1-.907.875c.313-.273.058-.045-.116.074-.214.145-.436.281-.662.408-.176.1-.358.182-.536.275-.031.017-.343.154-.09.046.276-.118-.137.051-.2.073a12.256,12.256,0,0,1-1.492.425c-.111.023-.65.122-.494.1.247-.038-.15.018-.162.019a6.079,6.079,0,0,0-.885.109c-.637.176-1.25.484-1.888.672a14.167,14.167,0,0,1-1.573.377c-.113.02-.227.04-.34.056.04-.006.369-.037.092-.02s-.547.041-.823.042c-.193,0-.385-.01-.578-.018-.617-.027.237.084-.166-.018-.164-.041-.331-.07-.494-.117-.294-.084-.611-.3-.179-.035-.13-.079-.277-.134-.41-.211-.067-.039-.575-.377-.253-.146.3.217-.08-.079-.151-.146-.141-.135-.258-.3-.4-.429-.178-.169.149.188.152.194-.041-.085-.118-.165-.164-.246-.075-.129-.148-.259-.223-.388-.037-.063-.059-.144-.1-.2-.176-.246.142.45.06.153-.048-.173-.126-.341-.178-.514-.1-.332-.134-.688-.238-1.016-.079-.249.025.217.026.229-.01-.111-.027-.222-.036-.334-.016-.2-.029-.4-.036-.595-.013-.379-.007-.759.016-1.137.012-.209.033-.417.053-.625.051-.538-.084.163.027-.137a2.461,2.461,0,0,0,.148-.5c.027-.228-.089.195-.1.221.036-.068.061-.142.1-.21.176-.331.392-.628.579-.95.157-.268-.306.3-.068.094.062-.053.11-.133.166-.192.117-.127.233-.254.355-.375.146-.146.3-.286.451-.422s.528-.424.148-.141a13.5,13.5,0,0,1,2.288-1.374c.089-.042.179-.081.268-.124.321-.154-.361.139-.028.009.248-.1.495-.191.746-.277a14.646,14.646,0,0,1,1.438-.412q.388-.09.78-.157c.1-.017.2-.028.294-.047.336-.066-.392,0-.052.011.482.013.972-.073,1.457-.064.255,0,.508.029.763.041.054,0,.377.04.056,0-.37-.045.216.04.236.044.455.087.88.264,1.327.368.253.059-.125-.057-.153-.071.109.052.219.1.327.155a6.917,6.917,0,0,1,.625.359c.074.048.146.11.224.153.263.144-.26-.265-.056-.043.185.2.409.373.6.574a2.4,2.4,0,0,0,3.394-3.394c-3.286-3.5-8.768-3.586-13-1.978a15.135,15.135,0,0,0-5.7,3.581A8.9,8.9,0,0,0,221,158.691c-.25,4.137,1.667,8.706,6.131,9.57a11.469,11.469,0,0,0,3.916.029,14.079,14.079,0,0,0,1.771-.375c.349-.1.695-.207,1.038-.326a3.409,3.409,0,0,0,.543-.2l.278-.107c-.149-.048-.145-.069.013-.066.674-.2,1.449-.182,2.145-.35a12.606,12.606,0,0,0,1.934-.662,11.5,11.5,0,0,0,3.157-1.977,8.792,8.792,0,0,0,.26-13.024A2.4,2.4,0,1,0,238.8,154.6Z"/><path class="d" d="M168.612,234.6c2.667-1.817,5.9-4.086,9.133-4.588,1.925-.3,4.14.265,6.077.357a58.054,58.054,0,0,0,7.272-.135c1.094-.086,2.189-.21,3.271-.394.531-.091,1.6-.589,2.1-.4.327.123.313.36.38.483.042-.229.027-.2-.043.091q.11-.279-.1.127a5.661,5.661,0,0,1-.574.559,18.881,18.881,0,0,1-8.913,4.032,2.422,2.422,0,0,0-1.677,2.952,2.453,2.453,0,0,0,2.953,1.677,24.382,24.382,0,0,0,8.847-3.665c1.644-1.041,3.306-2.283,4-4.171a5.038,5.038,0,0,0-.975-5,5.5,5.5,0,0,0-5.427-1.731,31.9,31.9,0,0,1-5.416.741,59.509,59.509,0,0,1-6.611-.014,28.472,28.472,0,0,0-5.911-.208c-3.863.559-7.655,2.994-10.811,5.145-2.538,1.73-.14,5.891,2.422,4.145Z"/><path class="d" d="M168.234,242.24c1.92.169,3.822.469,5.723.783A26.157,26.157,0,0,1,179.4,244.2c1.962.78,3.715,1.674,5.887,1.171a34.781,34.781,0,0,0,5.928-2.31c2.859-1.265,5.629-2.84,8.729-3.436a5.87,5.87,0,0,1,1.325-.166c.327-.017.652-.013.98-.008.051,0,.77.1.292.012a3.964,3.964,0,0,1,.843.227c-.509-.218.073.126.147.135-.228-.173-.244-.166-.049.019-.174-.225-.188-.22-.044.014-.142-.121-.052-.149-.043.142.1,3.08,4.9,3.094,4.8,0-.12-3.636-3.063-5.38-6.432-5.357a22.132,22.132,0,0,0-8.9,2.4c-2.07.93-4.1,1.922-6.22,2.731a9.06,9.06,0,0,1-2.746.978,8.691,8.691,0,0,1-2.843-1.029,28.069,28.069,0,0,0-6.232-1.4c-2.186-.358-4.381-.692-6.587-.887a2.419,2.419,0,0,0-2.4,2.4,2.45,2.45,0,0,0,2.4,2.4Z"/><path class="d" d="M191,251.357c4.8-2.617,9.694-5.1,14.561-7.58a29.545,29.545,0,0,1,5.968-2.323c1.274-.33,2.977-.7,3.006,1.185.048,3.086,4.849,3.095,4.8,0a6.406,6.406,0,0,0-4.944-6.207c-2.856-.575-6.212.953-8.783,2.051-2.6,1.111-5.041,2.544-7.553,3.831-3.165,1.622-6.355,3.195-9.477,4.9-2.713,1.48-.293,5.626,2.422,4.145Z"/><path class="d" d="M152.011,255.59a82.413,82.413,0,0,1,9.94.1c.265.019.532.032.8.061.42.045-.1-.1.419.1s1.036.381,1.544.619c1.289.6,2.465,1.381,3.729,2.027,6.831,3.492,14.258,3.365,21.71,2.938,4.2-.24,8.38-.758,12.556-1.234a36.9,36.9,0,0,0,12.16-4.007c1.778-.879,3.553-1.781,5.29-2.74a18.094,18.094,0,0,0,4.7-3.286c2.746-3.024,1.264-7.43-2.394-8.775a8.291,8.291,0,0,0-5.865.349c-1.814.663-3.614,1.355-5.392,2.11a85.693,85.693,0,0,0-11.443,5.805c-2.626,1.616-.218,5.77,2.423,4.144a84.527,84.527,0,0,1,9.389-4.9q1.775-.805,3.587-1.513a22.318,22.318,0,0,1,4.449-1.591,2.444,2.444,0,0,1,1.851.485c.109.244.091.331-.125.639a7.185,7.185,0,0,1-2.113,1.527,71.654,71.654,0,0,1-9.785,4.992,30.462,30.462,0,0,1-4.7,1.614,48.8,48.8,0,0,1-5.658.706c-3.778.435-7.527.832-11.33,1-6.261.271-12.564.245-18.125-3.088a17.28,17.28,0,0,0-7.675-2.776,82.413,82.413,0,0,0-9.94-.1c-3.075.144-3.093,4.945,0,4.8Z"/><path class="d" d="M121.2,271.683c3.834.059,7.669.059,11.5.072q10.674.036,21.348.042,14.47.015,28.941.017,16.948,0,33.9,0,18.279-.006,36.559-.017,18.481-.01,36.964-.026,17.336-.013,34.67-.03l30.231-.03,23.147-.023q6.9-.006,13.794-.011h1.684c3.089,0,3.094-4.8,0-4.8q-5.6,0-11.19.008l-21.1.021-28.763.028-33.789.031q-18.26.015-36.518.027-18.5.014-36.989.02-17.382.007-34.763.007-15.2,0-30.393-.012-11.688-.011-23.375-.035c-4.7-.012-9.393-.021-14.09-.064-.589-.006-1.178-.012-1.767-.021-3.09-.047-3.091,4.753,0,4.8Z"/></svg>