<!DOCTYPE svg PUBLIC "-//W3C//DTD SVG 1.1//EN" "http://www.w3.org/Graphics/SVG/1.1/DTD/svg11.dtd">
<!-- Uploaded to: SVG Repo, www.svgrepo.com, Transformed by: SVG Repo Mixer Tools -->
<svg width="800px" height="800px" viewBox="0 0 512 512" version="1.1" xml:space="preserve" xmlns="http://www.w3.org/2000/svg" xmlns:xlink="http://www.w3.org/1999/xlink" fill="#000000">
<g id="SVGRepo_bgCarrier" stroke-width="0"/>
<g id="SVGRepo_tracerCarrier" stroke-linecap="round" stroke-linejoin="round"/>
<g id="SVGRepo_iconCarrier"> <g id="_x35_57_x2C__Telephone_x2C__Call_x2C__Heart_x2C__Love_x2C__Valentine"> <g> <path d="M262.048,244.322c8.59,8.59,8.59,22.52,0,31.12c-8.59,8.59-22.521,8.59-31.12,0 c-8.59-8.6-8.59-22.53,0-31.12C239.527,235.731,253.458,235.731,262.048,244.322z" style="fill:#FFD15C;"/> <path d="M238.928,255.321c7.768-7.76,19.873-8.485,28.476-2.227c-1.037-3.207-2.81-6.227-5.355-8.773 c-8.59-8.59-22.521-8.59-31.12,0c-8.59,8.59-8.59,22.52,0,31.12c0.832,0.83,1.725,1.556,2.646,2.226 C231.111,270.052,232.882,261.366,238.928,255.321z" style="fill:#EFBD50;"/> <path d="M354.479,345.571c28.25,28.25,28.039,74.24-0.49,102.771 c-87.66,87.649-381.791-207.87-294.831-294.83c28.53-28.53,74.52-28.74,102.77-0.49c28.24,28.25,28.03,74.23-0.5,102.76 c-2.06,2.06-4.19,3.97-6.42,5.709l90.97,90.961c1.77-2.2,3.65-4.36,5.7-6.41C280.218,317.502,326.229,317.321,354.479,345.571z" style="fill:#AED3E5;"/> <g> <path d="M74.249,159.342c19.115-19.116,46.065-25.498,70.269-19.144 c-27.371-14.362-62.145-9.901-85.36,13.314c-68.132,68.132,97.666,264.279,214.816,303.872 C158.32,407.276,8.996,224.594,74.249,159.342z" style="fill:#98C2D3;"/> </g> <path d="M414.418,47.592c30.021,0,54.32,25.02,54.32,55.85c0,55.85-54.32,87.65-108.57,143.5 c-54.25-55.85-108.5-87.65-108.5-143.5c0-30.83,24.3-55.85,54.25-55.85c27.13,0,40.69,13.96,54.25,41.89 C373.738,61.552,387.298,47.592,414.418,47.592z" style="fill:#EF3E5C;"/> <g> <g> <g> <path d="M271.946,113.734c0-30.83,24.3-55.85,54.25-55.85c4.836,0,9.234,0.452,13.284,1.339 c-8.744-7.751-19.269-11.631-33.563-11.631c-29.95,0-54.25,25.02-54.25,55.85c0,55.85,54.25,87.65,108.5,143.5 c1.634-1.682,3.268-3.341,4.899-4.98C316.4,195.141,271.946,164.29,271.946,113.734z" style="fill:#E42A53;"/> </g> </g> </g> <path d="M312.871,464.408H59.161c-2.761,0-5-2.238-5-5s2.239-5,5-5h253.71c2.762,0,5,2.238,5,5 S315.633,464.408,312.871,464.408z" style="fill:#AED3E5;"/> <path d="M79.509,149.203c-1.984,0-3.862-1.189-4.644-3.145c-1.025-2.564,0.222-5.474,2.786-6.5 l135.92-54.36c2.563-1.023,5.474,0.221,6.5,2.786c1.025,2.564-0.222,5.474-2.786,6.5l-135.92,54.36 C80.755,149.087,80.127,149.203,79.509,149.203z" style="fill:#98C2D3;"/> <path d="M363.469,430.163c-0.524,0-1.058-0.083-1.582-0.258c-2.62-0.873-4.035-3.705-3.162-6.324 l63.431-190.28c0.874-2.62,3.708-4.035,6.324-3.162c2.62,0.873,4.035,3.705,3.162,6.324l-63.431,190.28 C367.513,428.838,365.562,430.163,363.469,430.163z" style="fill:#AED3E5;"/> <path d="M122.59,427.858h-63.43c-2.761,0-5-2.238-5-5s2.239-5,5-5h63.43c2.761,0,5,2.238,5,5 S125.352,427.858,122.59,427.858z" style="fill:#AED3E5;"/> <path d="M104.47,391.618h-45.31c-2.761,0-5-2.238-5-5s2.239-5,5-5h45.31c2.761,0,5,2.238,5,5 S107.231,391.618,104.47,391.618z" style="fill:#AED3E5;"/> </g> </g> <g id="Layer_1"/> </g>
</svg>