<svg id="eU4VCt3evZH1" xmlns="http://www.w3.org/2000/svg" xmlns:xlink="http://www.w3.org/1999/xlink" viewBox="0 0 375 667" shape-rendering="geometricPrecision" text-rendering="geometricPrecision">
<style><![CDATA[
#eU4VCt3evZH5_to {animation: eU4VCt3evZH5_to__to 5000ms linear infinite normal forwards}@keyframes eU4VCt3evZH5_to__to { 0% {transform: translate(235.5px,304.5px)} 50% {transform: translate(217px,286.5px)} 100% {transform: translate(235.5px,304.5px)}} #eU4VCt3evZH10_ts {animation: eU4VCt3evZH10_ts__ts 5000ms linear infinite normal forwards}@keyframes eU4VCt3evZH10_ts__ts { 0% {transform: translate(158px,657.5px) scale(1,1)} 32% {transform: translate(158px,657.5px) scale(1,1)} 38% {transform: translate(158px,657.5px) scale(1.2,1.2)} 44% {transform: translate(158px,657.5px) scale(1.2,1.2)} 52% {transform: translate(158px,657.5px) scale(1,1)} 100% {transform: translate(158px,657.5px) scale(1,1)}} #eU4VCt3evZH11_ts {animation: eU4VCt3evZH11_ts__ts 5000ms linear infinite normal forwards}@keyframes eU4VCt3evZH11_ts__ts { 0% {transform: translate(159.350006px,658.099976px) scale(1,1)} 26% {transform: translate(159.350006px,658.099976px) scale(1,1)} 32% {transform: translate(159.350006px,658.099976px) scale(1.2,1.2)} 38% {transform: translate(159.350006px,658.099976px) scale(1.2,1.2)} 46% {transform: translate(159.350006px,658.099976px) scale(1,1)} 100% {transform: translate(159.350006px,658.099976px) scale(1,1)}} #eU4VCt3evZH12_ts {animation: eU4VCt3evZH12_ts__ts 5000ms linear infinite normal forwards}@keyframes eU4VCt3evZH12_ts__ts { 0% {transform: translate(160.700012px,658.649994px) scale(1,1)} 20% {transform: translate(160.700012px,658.649994px) scale(1,1)} 26% {transform: translate(160.700012px,658.649994px) scale(1.2,1.2)} 32% {transform: translate(160.700012px,658.649994px) scale(1.2,1.2)} 40% {transform: translate(160.700012px,658.649994px) scale(1,1)} 100% {transform: translate(160.700012px,658.649994px) scale(1,1)}} #eU4VCt3evZH13_ts {animation: eU4VCt3evZH13_ts__ts 5000ms linear infinite normal forwards}@keyframes eU4VCt3evZH13_ts__ts { 0% {transform: translate(160.699997px,658.599976px) scale(1,1)} 14% {transform: translate(160.699997px,658.599976px) scale(1,1)} 20% {transform: translate(160.699997px,658.599976px) scale(1.2,1.2)} 26% {transform: translate(160.699997px,658.599976px) scale(1.2,1.2)} 34% {transform: translate(160.699997px,658.599976px) scale(1,1)} 100% {transform: translate(160.699997px,658.599976px) scale(1,1)}} #eU4VCt3evZH14_ts {animation: eU4VCt3evZH14_ts__ts 5000ms linear infinite normal forwards}@keyframes eU4VCt3evZH14_ts__ts { 0% {transform: translate(162.050003px,659.200012px) scale(1,1)} 8% {transform: translate(162.050003px,659.200012px) scale(1,1)} 14% {transform: translate(162.050003px,659.200012px) scale(1.2,1.2)} 20% {transform: translate(162.050003px,659.200012px) scale(1.2,1.2)} 28% {transform: translate(162.050003px,659.200012px) scale(1,1)} 100% {transform: translate(162.050003px,659.200012px) scale(1,1)}} #eU4VCt3evZH15_ts {animation: eU4VCt3evZH15_ts__ts 5000ms linear infinite normal forwards}@keyframes eU4VCt3evZH15_ts__ts { 0% {transform: translate(162.050003px,659.199951px) scale(1,1)} 8% {transform: translate(162.050003px,659.199951px) scale(1.2,1.2)} 14% {transform: translate(162.050003px,659.199951px) scale(1.2,1.2)} 22% {transform: translate(162.050003px,659.199951px) scale(1,1)} 100% {transform: translate(162.050003px,659.199951px) scale(1,1)}}
]]></style>
<defs><linearGradient id="eU4VCt3evZH4-fill" x1="187.5" y1="21.8" x2="187.5" y2="667" spreadMethod="pad" gradientUnits="userSpaceOnUse" gradientTransform="translate(0 0)"><stop id="eU4VCt3evZH4-fill-0" offset="0%" stop-color="#fac661"/><stop id="eU4VCt3evZH4-fill-1" offset="100%" stop-color="#f76b1c"/></linearGradient><linearGradient id="eU4VCt3evZH6-fill" x1="96.4" y1="305.8" x2="91.5" y2="438.4" spreadMethod="pad" gradientUnits="userSpaceOnUse" gradientTransform="translate(0 0)"><stop id="eU4VCt3evZH6-fill-0" offset="0%" stop-color="#fad961"/><stop id="eU4VCt3evZH6-fill-1" offset="100%" stop-color="rgba(248,142,50,0)"/></linearGradient><linearGradient id="eU4VCt3evZH7-fill" x1="267.4" y1="314.4" x2="272.1" y2="454.1" spreadMethod="pad" gradientUnits="userSpaceOnUse" gradientTransform="translate(0 0)"><stop id="eU4VCt3evZH7-fill-0" offset="0%" stop-color="#fad961"/><stop id="eU4VCt3evZH7-fill-1" offset="100%" stop-color="rgba(248,144,51,0)"/></linearGradient><linearGradient id="eU4VCt3evZH16-fill" x1="135.8" y1="431.7" x2="135.8" y2="528.1" spreadMethod="pad" gradientUnits="userSpaceOnUse" gradientTransform="translate(0 0)"><stop id="eU4VCt3evZH16-fill-0" offset="0%" stop-color="#f89838"/><stop id="eU4VCt3evZH16-fill-1" offset="100%" stop-color="rgba(251,218,97,0)"/></linearGradient><linearGradient id="eU4VCt3evZH17-fill" x1="376.4" y1="434.8" x2="376.4" y2="577.6" spreadMethod="pad" gradientUnits="userSpaceOnUse" gradientTransform="translate(0 0)"><stop id="eU4VCt3evZH17-fill-0" offset="0%" stop-color="#f89838"/><stop id="eU4VCt3evZH17-fill-1" offset="100%" stop-color="rgba(251,218,97,0)"/></linearGradient><linearGradient id="eU4VCt3evZH20-fill" x1="155.5" y1="379.1" x2="155.5" y2="406.6" spreadMethod="pad" gradientUnits="userSpaceOnUse" gradientTransform="translate(0 0)"><stop id="eU4VCt3evZH20-fill-0" offset="0%" stop-color="#e98b36"/><stop id="eU4VCt3evZH20-fill-1" offset="100%" stop-color="#e1832d"/></linearGradient><linearGradient id="eU4VCt3evZH21-fill" x1="155.5" y1="388.7" x2="155.5" y2="398.4" spreadMethod="pad" gradientUnits="userSpaceOnUse" gradientTransform="translate(0 0)"><stop id="eU4VCt3evZH21-fill-0" offset="0%" stop-color="#e98b36"/><stop id="eU4VCt3evZH21-fill-1" offset="100%" stop-color="#e1832d"/></linearGradient><linearGradient id="eU4VCt3evZH22-fill" x1="155.5" y1="378.5" x2="155.5" y2="392.3" spreadMethod="pad" gradientUnits="userSpaceOnUse" gradientTransform="translate(0 0)"><stop id="eU4VCt3evZH22-fill-0" offset="0%" stop-color="#e98b36"/><stop id="eU4VCt3evZH22-fill-1" offset="100%" stop-color="#e1832d"/></linearGradient><linearGradient id="eU4VCt3evZH24-fill" x1="155.5" y1="460.2" x2="155.5" y2="438" spreadMethod="pad" gradientUnits="userSpaceOnUse" gradientTransform="translate(0 0)"><stop id="eU4VCt3evZH24-fill-0" offset="0%" stop-color="#e98b36"/><stop id="eU4VCt3evZH24-fill-1" offset="100%" stop-color="#e1832d"/></linearGradient><linearGradient id="eU4VCt3evZH25-fill" x1="155.5" y1="452.4" x2="155.5" y2="444.6" spreadMethod="pad" gradientUnits="userSpaceOnUse" gradientTransform="translate(0 0)"><stop id="eU4VCt3evZH25-fill-0" offset="0%" stop-color="#e98b36"/><stop id="eU4VCt3evZH25-fill-1" offset="100%" stop-color="#e1832d"/></linearGradient><linearGradient id="eU4VCt3evZH26-fill" x1="155.5" y1="460.6" x2="155.5" y2="449.5" spreadMethod="pad" gradientUnits="userSpaceOnUse" gradientTransform="translate(0 0)"><stop id="eU4VCt3evZH26-fill-0" offset="0%" stop-color="#e98b36"/><stop id="eU4VCt3evZH26-fill-1" offset="100%" stop-color="#e1832d"/></linearGradient></defs><g clip-path="url(#eU4VCt3evZH28)"><g><path d="M0,0h375v667h-375Z" fill="url(#eU4VCt3evZH4-fill)"/><g id="eU4VCt3evZH5_to" transform="translate(235.5,304.5)"><path d="M235.5,334c16.3,0,29.5-13.2,29.5-29.5s-13.2-29.5-29.5-29.5-29.5,13.2-29.5,29.5s13.2,29.5,29.5,29.5Z" transform="translate(-235.5,-304.5)" fill="#ffe7bd"/></g><path d="M-27,432.4l70.3-74.5L65,383.4L95.2,329l43.7,55.7l20.3,4.1L187,424.3v8.1Z" fill="url(#eU4VCt3evZH6-fill)"/><path d="M107,439.8l20.7-39.3L170,385.3l46.5-68.7l22.2,30.1l11.8-10.5L299.7,257L340,319.6l26.4,12.9l29.1,45.3l31.3,10.1L457,412.7l4,28.3Z" fill="url(#eU4VCt3evZH7-fill)"/><path d="M0,425h375v242h-375Z" fill="#f9c052"/><g><g id="eU4VCt3evZH10_ts" transform="translate(158,657.5) scale(1,1)"><path d="M158,874c284.4,0,515-96.9,515-216.5s-230.6-216.5-515-216.5-515,96.9-515,216.5s230.6,216.5,515,216.5Z" transform="translate(-158,-657.5)" opacity="0.1" fill="#fff"/></g><g id="eU4VCt3evZH11_ts" transform="translate(159.350006,658.099976) scale(1,1)"><path d="M159.3,842.3c242,0,438.2-82.5,438.2-184.2c0-101.8-196.2-184.2-438.2-184.2-241.9,0-438.1,82.4-438.1,184.2c0,101.7,196.2,184.2,438.1,184.2Z" transform="translate(-159.350006,-658.099976)" opacity="0.1" fill="#fff"/></g><g id="eU4VCt3evZH12_ts" transform="translate(160.700012,658.649994) scale(1,1)"><path d="M160.7,801.5c187.6,0,339.7-64,339.7-142.9c0-78.8-152.1-142.8-339.7-142.8s-339.7,64-339.7,142.8c0,78.9,152.1,142.9,339.7,142.9Z" transform="translate(-160.700012,-658.649994)" opacity="0.1" fill="#fff"/></g><g id="eU4VCt3evZH13_ts" transform="translate(160.699997,658.599976) scale(1,1)"><path d="M160.7,760.6c134,0,242.7-45.6,242.7-102c0-56.3-108.7-102-242.7-102s-242.7,45.7-242.7,102c0,56.4,108.7,102,242.7,102Z" transform="translate(-160.699997,-658.599976)" opacity="0.1" fill="#fff"/></g><g id="eU4VCt3evZH14_ts" transform="translate(162.050003,659.200012) scale(1,1)"><path d="M162,723.2c84.2,0,152.4-28.6,152.4-64s-68.2-64-152.4-64c-84.1,0-152.3,28.6-152.3,64s68.2,64,152.3,64Z" transform="translate(-162.050003,-659.200012)" opacity="0.1" fill="#fff"/></g><g id="eU4VCt3evZH15_ts" transform="translate(162.050003,659.199951) scale(1,1)"><path d="M162,692.6c44,0,79.6-14.9,79.6-33.4s-35.6-33.4-79.6-33.4c-43.9,0-79.5,14.9-79.5,33.4s35.6,33.4,79.5,33.4Z" transform="translate(-162.050003,-659.199951)" opacity="0.1" fill="#fff"/></g></g><path d="M-27,424.4l70.3,60.3L65,464l30.2,44.1L138.9,463l20.3-3.3L187,431v-6.6" fill="url(#eU4VCt3evZH16-fill)" fill-opacity="0.2"/><path d="M107,424.8l20.7,26.4L170,461.5l46.5,46.3l22.2-20.3l11.8,7.1l49.2,53.3L340,505.8l26.4-8.7l29.1-30.5l31.3-6.9L457,443l4-19" fill="url(#eU4VCt3evZH17-fill)" fill-opacity="0.2"/><g><path d="M154.3,404.7h3.2v19.3h-3.2Z" fill="#d47a26"/><path d="M155.5,378l7.5,29.5h-15Z" fill="url(#eU4VCt3evZH20-fill)"/><path d="M155.5,388.4l7.5,10.3h-15Z" fill="url(#eU4VCt3evZH21-fill)"/><path d="M155.5,378l7.5,14.8h-15Z" fill="url(#eU4VCt3evZH22-fill)"/></g><g opacity="0.4"><path d="M155.5,461l7.5-23.8h-15Z" fill="url(#eU4VCt3evZH24-fill)"/><path d="M155.5,452.7l7.5-8.3h-15Z" fill="url(#eU4VCt3evZH25-fill)"/><path d="M155.5,461l7.5-11.9h-15Z" fill="url(#eU4VCt3evZH26-fill)"/><path d="M154.3,439.5h3.2v-15.5h-3.2Z" fill="#e1832d"/></g></g><clipPath id="eU4VCt3evZH28"><path d="M0,0h375v667h-375Z"/></clipPath></g></svg>
