<?xml version="1.0" encoding="iso-8859-1"?>
<!-- Uploaded to: SVG Repo, www.svgrepo.com, Generator: SVG Repo Mixer Tools -->
<svg height="800px" width="800px" version="1.1" id="Layer_1" xmlns="http://www.w3.org/2000/svg" xmlns:xlink="http://www.w3.org/1999/xlink" 
	 viewBox="0 0 512 512" xml:space="preserve">
<path style="fill:#E0DDDF;" d="M464.208,251.362L354.33,141.483L244.451,31.605c-40.182-40.181-105.561-40.181-145.744,0
	c-40.181,40.181-40.181,105.561,0,145.742l109.878,109.878l109.878,109.88c20.091,20.091,46.482,30.136,72.871,30.136
	c26.391,0,52.78-10.045,72.871-30.136C504.389,356.922,504.389,291.542,464.208,251.362z"/>
<path style="fill:#FF675C;" d="M354.33,141.483L244.451,31.605c-40.182-40.181-105.561-40.181-145.744,0
	c-40.181,40.181-40.181,105.561,0,145.742l109.878,109.878c1.581,1.58,3.653,2.371,5.724,2.371c2.071,0,4.143-0.791,5.724-2.371
	l134.297-134.297c1.517-1.517,2.37-3.576,2.37-5.723C356.7,145.059,355.847,143,354.33,141.483z"/>
<path style="fill:#FAEC8E;" d="M354.33,141.483L208.586,287.225l109.878,109.88c20.091,20.091,46.482,30.136,72.871,30.136
	c26.391,0,52.78-10.045,72.871-30.136c40.181-40.181,40.181-105.561,0-145.743L354.33,141.483z"/>
<path style="fill:#FBC96C;" d="M417.125,419.195c-26.39,0-52.78-10.045-72.871-30.136l-100.83-100.831
	c-2.108-2.108-2.108-5.523,0-7.63l125.011-125.011l-14.104-14.104L208.586,287.225l14.105,14.105l95.774,95.774
	c20.091,20.091,46.482,30.136,72.871,30.136c14.895,0,29.788-3.204,43.551-9.603C429.013,418.656,423.071,419.195,417.125,419.195z"
	/>
<path style="fill:#DB3D5A;" d="M124.495,169.3c-40.181-40.181-40.181-105.561,0-145.742c8.752-8.752,18.7-15.593,29.321-20.532
	c-20.197,3.507-39.545,13.014-55.109,28.578c-40.181,40.181-40.181,105.561,0,145.742l109.878,109.878l0,0l16.917-16.917
	L124.495,169.3z"/>
<circle style="fill:#FFFFFF;" cx="439.739" cy="313.978" r="32.373"/>
<g>
	<circle style="fill:#DB3D5A;" cx="218.521" cy="188.801" r="19.964"/>
	<circle style="fill:#DB3D5A;" cx="237.945" cy="143.478" r="9.172"/>
	<circle style="fill:#DB3D5A;" cx="164.565" cy="144.557" r="26.438"/>
</g>
<path style="fill:#FF675C;" d="M488.177,24.901c-0.036-0.036-0.072-0.071-0.111-0.108l-0.001,0.001
	C456.29-6.863,404.682-6.825,372.956,24.9c-31.622,31.622-31.74,83.137-0.295,114.91l-0.002,0.002
	c0.089,0.095,0.179,0.19,0.271,0.283c0.009,0.009,0.017,0.017,0.025,0.025c15.885,15.883,36.747,23.825,57.611,23.825
	c20.864,0,41.727-7.941,57.611-23.825C519.941,108.355,519.941,56.667,488.177,24.901z"/>
<path style="fill:#5CC4E0;" d="M372.66,139.814c0.088,0.095,0.179,0.19,0.271,0.283c0.009,0.009,0.017,0.017,0.025,0.025
	c0.181,0.181,0.371,0.347,0.554,0.526L488.702,25.455c-0.179-0.182-0.345-0.372-0.526-0.554c-0.036-0.036-0.072-0.071-0.111-0.108
	l-0.001,0.001C456.29-6.863,404.682-6.825,372.956,24.9c-31.622,31.622-31.74,83.137-0.295,114.91L372.66,139.814z"/>
<path style="fill:#DB3D5A;" d="M488.702,25.455L373.509,140.648c2.587,2.539,5.312,4.848,8.134,6.973L495.673,33.59
	C493.551,30.767,491.241,28.041,488.702,25.455z"/>
<path style="fill:#FF675C;" d="M139.019,243.38c-0.036-0.036-0.072-0.071-0.111-0.108l-0.001,0.001
	c-31.774-31.656-83.382-31.619-115.109,0.106c-31.622,31.622-31.74,83.138-0.295,114.911l-0.002,0.002
	c0.088,0.095,0.179,0.19,0.271,0.283c0.009,0.009,0.017,0.017,0.025,0.025c15.885,15.883,36.747,23.825,57.611,23.825
	s41.727-7.941,57.611-23.825C170.784,326.834,170.784,275.146,139.019,243.38z"/>
<path style="fill:#5CC4E0;" d="M23.502,358.293c0.088,0.095,0.179,0.19,0.271,0.283c0.009,0.009,0.017,0.017,0.025,0.025
	c0.181,0.181,0.371,0.347,0.554,0.526l115.193-115.193c-0.179-0.182-0.345-0.372-0.526-0.554c-0.036-0.036-0.072-0.071-0.111-0.108
	l-0.001,0.001c-31.774-31.656-83.382-31.619-115.109,0.106c-31.622,31.623-31.74,83.139-0.295,114.913L23.502,358.293z"/>
<path style="fill:#DB3D5A;" d="M139.545,243.933L24.352,359.126c2.587,2.539,5.312,4.848,8.134,6.973l114.03-114.031
	C144.392,249.246,142.084,246.52,139.545,243.933z"/>
<path style="fill:#FF675C;" d="M267.432,487.098c-0.036,0.036-0.072,0.071-0.11,0.108l-0.001-0.001
	c-31.774,31.657-83.382,31.619-115.109-0.106c-31.622-31.622-31.74-83.137-0.295-114.91l-0.002-0.002
	c0.088-0.095,0.179-0.19,0.271-0.283c0.009-0.009,0.017-0.017,0.025-0.025c15.885-15.883,36.747-23.825,57.611-23.825
	s41.727,7.941,57.611,23.825C299.198,403.645,299.198,455.332,267.432,487.098z"/>
<path style="fill:#5CC4E0;" d="M151.917,372.185c0.088-0.095,0.179-0.19,0.271-0.283c0.009-0.009,0.017-0.017,0.025-0.025
	c0.181-0.181,0.371-0.347,0.554-0.526l115.193,115.193c-0.179,0.182-0.345,0.372-0.526,0.554c-0.036,0.036-0.072,0.071-0.11,0.108
	l-0.001-0.001c-31.774,31.657-83.382,31.619-115.109-0.106c-31.622-31.622-31.74-83.137-0.295-114.91L151.917,372.185z"/>
<path style="fill:#DB3D5A;" d="M267.959,486.544L152.766,371.351c2.587-2.539,5.312-4.848,8.134-6.973l114.03,114.03
	C272.806,481.232,270.498,483.958,267.959,486.544z"/>
</svg>